<svg xmlns="http://www.w3.org/2000/svg" viewBox="0 0 1000 1000" width="1000" height="1000" preserveAspectRatio="xMidYMid meet" style="width: 100%; height: 100%; transform: translate3d(0px, 0px, 0px); content-visibility: visible;"><defs><clipPath id="__lottie_element_1442"><rect width="1000" height="1000" x="0" y="0"></rect></clipPath></defs><g clip-path="url(#__lottie_element_1442)"><g transform="matrix(0.2998329997062683,0.4042415916919708,0.4042415916919708,0.7666109800338745,274.8223571777344,123.29888916015625)" opacity="1" style="display: none;"><g opacity="1" transform="matrix(1,0,0,1,289.1159973144531,331.9320068359375)"><path fill="rgb(253,80,97)" fill-opacity="1" d=" M-288.8659973144531,8.329999923706055 C-288.8659973144531,8.329999923706055 -110.39800262451172,331.6820068359375 -110.39800262451172,331.6820068359375 C-110.39800262451172,331.6820068359375 288.8659973144531,-22.895999908447266 288.8659973144531,-22.895999908447266 C288.8659973144531,-22.895999908447266 146.74200439453125,-279.37200927734375 146.74200439453125,-279.37200927734375 C146.74200439453125,-279.37200927734375 -140.1230010986328,-331.6820068359375 -140.1230010986328,-331.6820068359375 C-140.1230010986328,-331.6820068359375 -288.8659973144531,8.329999923706055 -288.8659973144531,8.329999923706055z"></path></g></g><g style="display: block;" transform="matrix(0.999859094619751,0.00008132594666676596,0.00008133053779602051,0.999953031539917,193.81263732910156,170.0698699951172)" opacity="1"><g opacity="1" transform="matrix(1,0,0,1,289.1159973144531,331.9320068359375)"><path fill="rgb(253,80,97)" fill-opacity="1" d=" M-288.8659973144531,8.329999923706055 C-288.8659973144531,8.329999923706055 -110.39800262451172,331.6820068359375 -110.39800262451172,331.6820068359375 C-110.39800262451172,331.6820068359375 288.8659973144531,-22.895999908447266 288.8659973144531,-22.895999908447266 C288.8659973144531,-22.895999908447266 146.74200439453125,-279.37200927734375 146.74200439453125,-279.37200927734375 C146.74200439453125,-279.37200927734375 -140.1230010986328,-331.6820068359375 -140.1230010986328,-331.6820068359375 C-140.1230010986328,-331.6820068359375 -288.8659973144531,8.329999923706055 -288.8659973144531,8.329999923706055z"></path></g></g></g></svg>
