<svg xmlns="http://www.w3.org/2000/svg" viewBox="0 0 1000 1000" width="1000" height="1000" preserveAspectRatio="xMidYMid meet" style="width: 100%; height: 100%; transform: translate3d(0px, 0px, 0px); content-visibility: visible;"><defs><clipPath id="__lottie_element_1460"><rect width="1000" height="1000" x="0" y="0"></rect></clipPath></defs><g clip-path="url(#__lottie_element_1460)"><g transform="matrix(0.6965622901916504,-0.3500896692276001,-0.5680441856384277,0.2641681432723999,456.1896057128906,514.288818359375)" opacity="1" style="display: none;"><g opacity="1" transform="matrix(1,0,0,1,300.62200927734375,289.66900634765625)"><path fill="rgb(255,236,75)" fill-opacity="1" d=" M-218.83099365234375,199.96200561523438 C-218.83099365234375,199.96200561523438 -31.145999908447266,289.41900634765625 -31.145999908447266,289.41900634765625 C-31.145999908447266,289.41900634765625 300.37200927734375,126.29199981689453 300.37200927734375,126.29199981689453 C300.37200927734375,126.29199981689453 -31.145999908447266,-289.41900634765625 -31.145999908447266,-289.41900634765625 C-31.145999908447266,-289.41900634765625 -300.37200927734375,-163.1230010986328 -300.37200927734375,-163.1230010986328 C-300.37200927734375,-163.1230010986328 -218.83099365234375,199.96200561523438 -218.83099365234375,199.96200561523438z"></path></g></g><g transform="matrix(0.9999637007713318,-0.00006801846029702574,-0.00008080948464339599,0.9998474717140198,203.69544982910156,202.5966339111328)" opacity="1" style="display: block;"><g opacity="1" transform="matrix(1,0,0,1,300.62200927734375,289.66900634765625)"><path fill="rgb(255,236,75)" fill-opacity="1" d=" M-218.83099365234375,199.96200561523438 C-218.83099365234375,199.96200561523438 -31.145999908447266,289.41900634765625 -31.145999908447266,289.41900634765625 C-31.145999908447266,289.41900634765625 300.37200927734375,126.29199981689453 300.37200927734375,126.29199981689453 C300.37200927734375,126.29199981689453 -31.145999908447266,-289.41900634765625 -31.145999908447266,-289.41900634765625 C-31.145999908447266,-289.41900634765625 -300.37200927734375,-163.1230010986328 -300.37200927734375,-163.1230010986328 C-300.37200927734375,-163.1230010986328 -218.83099365234375,199.96200561523438 -218.83099365234375,199.96200561523438z"></path></g></g></g></svg>
