<svg xmlns="http://www.w3.org/2000/svg" viewBox="0 0 1000 1000" width="1000" height="1000" preserveAspectRatio="xMidYMid meet" style="width: 100%; height: 100%; transform: translate3d(0px, 0px, 0px); content-visibility: visible;"><defs><clipPath id="__lottie_element_1469"><rect width="1000" height="1000" x="0" y="0"></rect></clipPath></defs><g clip-path="url(#__lottie_element_1469)"><g transform="matrix(0.4718032777309418,0.5431498289108276,0.4746847152709961,0.5073509812355042,200.6614990234375,233.47752380371094)" opacity="1" style="display: none;"><g opacity="1" transform="matrix(1,0,0,1,300.0090026855469,300.5559997558594)"><path fill="rgb(51,224,142)" fill-opacity="1" d=" M-181.64500427246094,217.96400451660156 C-12.20300006866455,300.3059997558594 191.90899658203125,229.697998046875 274.2510070800781,60.25600051879883 C285.42999267578125,37.25199890136719 293.98699951171875,13.0649995803833 299.760009765625,-11.85099983215332 C299.760009765625,-11.85099983215332 -299.760009765625,-300.3059997558594 -299.760009765625,-300.3059997558594 C-299.760009765625,-300.3059997558594 -218.48199462890625,63.37900161743164 -181.64500427246094,217.96400451660156z"></path></g></g><g transform="matrix(0.9998952150344849,0.00009612010035198182,0.00009255202166968957,0.9999150633811951,211.07887268066406,224.75747680664062)" opacity="1" style="display: block;"><g opacity="1" transform="matrix(1,0,0,1,300.0090026855469,300.5559997558594)"><path fill="rgb(51,224,142)" fill-opacity="1" d=" M-181.64500427246094,217.96400451660156 C-12.20300006866455,300.3059997558594 191.90899658203125,229.697998046875 274.2510070800781,60.25600051879883 C285.42999267578125,37.25199890136719 293.98699951171875,13.0649995803833 299.760009765625,-11.85099983215332 C299.760009765625,-11.85099983215332 -299.760009765625,-300.3059997558594 -299.760009765625,-300.3059997558594 C-299.760009765625,-300.3059997558594 -218.48199462890625,63.37900161743164 -181.64500427246094,217.96400451660156z"></path></g></g></g></svg>
