<svg xmlns="http://www.w3.org/2000/svg" viewBox="0 0 1000 1000" width="1000" height="1000" preserveAspectRatio="xMidYMid meet" style="width: 100%; height: 100%; transform: translate3d(0px, 0px, 0px); content-visibility: visible;"><defs><clipPath id="__lottie_element_1496"><rect width="1000" height="1000" x="0" y="0"></rect></clipPath></defs><g clip-path="url(#__lottie_element_1496)"><g transform="matrix(0.1921118199825287,0.4775320589542389,0.3026561439037323,0.8022139668464661,407.1804504394531,100.9591293334961)" opacity="1" style="display: none;"><g opacity="1" transform="matrix(1,0,0,1,268.052001953125,305.5069885253906)"><path fill="rgb(185,193,207)" fill-opacity="1" d=" M-267.802001953125,-166.4720001220703 C-267.802001953125,-166.4720001220703 255.3070068359375,-305.2560119628906 255.3070068359375,-305.2560119628906 C255.3070068359375,-305.2560119628906 267.802001953125,67.87200164794922 267.802001953125,67.87200164794922 C267.802001953125,67.87200164794922 -12.427000045776367,305.2560119628906 -12.427000045776367,305.2560119628906 C-12.427000045776367,305.2560119628906 -267.802001953125,-166.4720001220703 -267.802001953125,-166.4720001220703z"></path></g></g><g style="display: block;" transform="matrix(0.9998375773429871,0.00007210350304376334,0.00005259988029138185,0.9999760389328003,211.41647338867188,196.0482177734375)" opacity="1"><g opacity="1" transform="matrix(1,0,0,1,268.052001953125,305.5069885253906)"><path fill="rgb(185,193,207)" fill-opacity="1" d=" M-267.802001953125,-166.4720001220703 C-267.802001953125,-166.4720001220703 255.3070068359375,-305.2560119628906 255.3070068359375,-305.2560119628906 C255.3070068359375,-305.2560119628906 267.802001953125,67.87200164794922 267.802001953125,67.87200164794922 C267.802001953125,67.87200164794922 -12.427000045776367,305.2560119628906 -12.427000045776367,305.2560119628906 C-12.427000045776367,305.2560119628906 -267.802001953125,-166.4720001220703 -267.802001953125,-166.4720001220703z"></path></g></g></g></svg>
