<svg xmlns="http://www.w3.org/2000/svg" viewBox="0 0 1000 1000" width="1000" height="1000" preserveAspectRatio="xMidYMid meet" style="width: 100%; height: 100%; transform: translate3d(0px, 0px, 0px); content-visibility: visible;"><defs><clipPath id="__lottie_element_1478"><rect width="1000" height="1000" x="0" y="0"></rect></clipPath></defs><g clip-path="url(#__lottie_element_1478)"><g transform="matrix(0.3432965576648712,0.5749897360801697,0.44332724809646606,0.5978806018829346,350.8661804199219,174.96450805664062)" opacity="1" style="display: none;"><g opacity="1" transform="matrix(1,0,0,1,300.0539855957031,208.73599243164062)"><path fill="rgb(75,79,99)" fill-opacity="1" d=" M299.8039855957031,77.7770004272461 C299.8039855957031,77.7770004272461 67.99299621582031,-208.48599243164062 67.99299621582031,-208.48599243164062 C67.99299621582031,-208.48599243164062 -299.8039855957031,-205.5709991455078 -299.8039855957031,-205.5709991455078 C-299.8039855957031,-205.5709991455078 33.85300064086914,208.48599243164062 33.85300064086914,208.48599243164062 C33.85300064086914,208.48599243164062 299.8039855957031,77.7770004272461 299.8039855957031,77.7770004272461z"></path></g></g><g transform="matrix(0.9998685717582703,0.00009222001244779676,0.0000850889555294998,0.9999402165412903,193.58175659179688,299.1531677246094)" opacity="1" style="display: block;"><g opacity="1" transform="matrix(1,0,0,1,300.0539855957031,208.73599243164062)"><path fill="rgb(75,79,99)" fill-opacity="1" d=" M299.8039855957031,77.7770004272461 C299.8039855957031,77.7770004272461 67.99299621582031,-208.48599243164062 67.99299621582031,-208.48599243164062 C67.99299621582031,-208.48599243164062 -299.8039855957031,-205.5709991455078 -299.8039855957031,-205.5709991455078 C-299.8039855957031,-205.5709991455078 33.85300064086914,208.48599243164062 33.85300064086914,208.48599243164062 C33.85300064086914,208.48599243164062 299.8039855957031,77.7770004272461 299.8039855957031,77.7770004272461z"></path></g></g></g></svg>
