<svg xmlns="http://www.w3.org/2000/svg" viewBox="0 0 1000 1000" width="1000" height="1000" preserveAspectRatio="xMidYMid meet" style="width: 100%; height: 100%; transform: translate3d(0px, 0px, 0px); content-visibility: visible;"><defs><clipPath id="__lottie_element_1487"><rect width="1000" height="1000" x="0" y="0"></rect></clipPath></defs><g clip-path="url(#__lottie_element_1487)"><g transform="matrix(0.8529263734817505,-0.4433915615081787,-0.25802356004714966,0.10076812654733658,281.9067077636719,622.0698852539062)" opacity="1" style="display: none;"><g opacity="1" transform="matrix(1,0,0,1,333.0920104980469,266.59100341796875)"><path fill="rgb(241,112,241)" fill-opacity="1" d=" M332.8429870605469,-33.637001037597656 C332.8429870605469,-33.637001037597656 146.96400451660156,-266.34100341796875 146.96400451660156,-266.34100341796875 C146.96400451660156,-266.34100341796875 -332.8429870605469,-33.14400100708008 -332.8429870605469,-33.14400100708008 C-291.7619934082031,150.6490020751953 -109.46399688720703,266.34100341796875 74.33000183105469,225.25900268554688 C203.4199981689453,196.40499877929688 304.1780090332031,95.4990005493164 332.8429870605469,-33.632999420166016 C332.8429870605469,-33.632999420166016 332.8429870605469,-33.637001037597656 332.8429870605469,-33.637001037597656z"></path></g></g><g transform="matrix(0.9999608993530273,-0.00008364475797861814,-0.00006978409510338679,0.9998494386672974,166.66793823242188,239.63778686523438)" opacity="1" style="display: block;"><g opacity="1" transform="matrix(1,0,0,1,333.0920104980469,266.59100341796875)"><path fill="rgb(241,112,241)" fill-opacity="1" d=" M332.8429870605469,-33.637001037597656 C332.8429870605469,-33.637001037597656 146.96400451660156,-266.34100341796875 146.96400451660156,-266.34100341796875 C146.96400451660156,-266.34100341796875 -332.8429870605469,-33.14400100708008 -332.8429870605469,-33.14400100708008 C-291.7619934082031,150.6490020751953 -109.46399688720703,266.34100341796875 74.33000183105469,225.25900268554688 C203.4199981689453,196.40499877929688 304.1780090332031,95.4990005493164 332.8429870605469,-33.632999420166016 C332.8429870605469,-33.632999420166016 332.8429870605469,-33.637001037597656 332.8429870605469,-33.637001037597656z"></path></g></g></g></svg>
