<svg xmlns="http://www.w3.org/2000/svg" viewBox="0 0 1000 1000" width="1000" height="1000" preserveAspectRatio="xMidYMid meet" style="width: 100%; height: 100%; transform: translate3d(0px, 0px, 0px); content-visibility: visible;"><defs><clipPath id="__lottie_element_1451"><rect width="1000" height="1000" x="0" y="0"></rect></clipPath></defs><g clip-path="url(#__lottie_element_1451)"><g transform="matrix(0.047987859696149826,-0.30547288060188293,-0.18503625690937042,0.9328897595405579,570.7474975585938,349.35296630859375)" opacity="1" style="display: none;"><g opacity="1" transform="matrix(1,0,0,1,293.4930114746094,266.75201416015625)"><path fill="rgb(130,38,132)" fill-opacity="1" d=" M293.2430114746094,266.5010070800781 C293.2430114746094,266.5010070800781 198.61700439453125,-266.5010070800781 198.61700439453125,-266.5010070800781 C198.61700439453125,-266.5010070800781 -293.2430114746094,-51.08399963378906 -293.2430114746094,-51.08399963378906 C-293.2430114746094,-51.08399963378906 293.2430114746094,266.5010070800781 293.2430114746094,266.5010070800781z"></path></g></g><g transform="matrix(0.9999929070472717,-0.000006340097115753451,0.000003574316679078038,0.9999997019767761,173.5275115966797,228.4929962158203)" opacity="1" style="display: block;"><g opacity="1" transform="matrix(1,0,0,1,293.4930114746094,266.75201416015625)"><path fill="rgb(130,38,132)" fill-opacity="1" d=" M293.2430114746094,266.5010070800781 C293.2430114746094,266.5010070800781 198.61700439453125,-266.5010070800781 198.61700439453125,-266.5010070800781 C198.61700439453125,-266.5010070800781 -293.2430114746094,-51.08399963378906 -293.2430114746094,-51.08399963378906 C-293.2430114746094,-51.08399963378906 293.2430114746094,266.5010070800781 293.2430114746094,266.5010070800781z"></path></g></g></g></svg>
