<?xml version="1.0" encoding="UTF-8" standalone="no"?>
<!-- Created with Inkscape (http://www.inkscape.org/) -->

<svg
   version="1.1"
   id="svg1"
   width="624.08002"
   height="910.37335"
   viewBox="0 0 624.08002 910.37335"
   sodipodi:docname="Corp_Red_RGB.eps"
   xmlns:inkscape="http://www.inkscape.org/namespaces/inkscape"
   xmlns:sodipodi="http://sodipodi.sourceforge.net/DTD/sodipodi-0.dtd"
   xmlns="http://www.w3.org/2000/svg"
   xmlns:svg="http://www.w3.org/2000/svg">
  <defs
     id="defs1" />
  <sodipodi:namedview
     id="namedview1"
     pagecolor="#ffffff"
     bordercolor="#000000"
     borderopacity="0.25"
     inkscape:showpageshadow="2"
     inkscape:pageopacity="0.0"
     inkscape:pagecheckerboard="0"
     inkscape:deskcolor="#d1d1d1">
    <inkscape:page
       x="0"
       y="0"
       inkscape:label="1"
       id="page1"
       width="624.08002"
       height="910.37335"
       margin="0"
       bleed="0" />
  </sodipodi:namedview>
  <g
     id="g1"
     inkscape:groupmode="layer"
     inkscape:label="1">
    <g
       id="group-R5">
      <path
         id="path2"
         d="m 643.328,6537.93 h 219.238 c 96.739,0 154.344,-15.77 199.294,-69.39 68.95,-82.68 75.03,-249.88 75.03,-586.75 v -587.45 c 0,-336.99 -6.08,-503.94 -75.03,-586.75 -44.95,-53.62 -102.555,-69.26 -199.294,-69.26 H 643.328 Z M 301.27,4348.37 h 621.32 c 241.33,0 388.53,54.83 477.79,170.37 131.75,157.77 135.93,412.33 135.93,802.82 v 533.01 c 0,390.36 -4.18,645.06 -135.93,802.82 -89.26,115.54 -236.46,170.43 -477.79,170.43 H 301.27 c -18.551,0 -30.075,-5.64 -38.176,-13.8 -8.293,-8.3 -13.867,-19.57 -13.867,-38.37 V 4400.29 c 0,-18.55 5.574,-30.01 13.867,-38.18 8.101,-8.22 19.625,-13.74 38.176,-13.74"
         style="fill:#990000;fill-opacity:1;fill-rule:nonzero;stroke:none"
         transform="matrix(0.13333333,0,0,-0.13333333,0,910.37333)" />
      <path
         id="path3"
         d="m 3777.71,4317.04 c 244.12,0 401.44,65.33 498.24,177.77 113.63,132.06 141.62,289.52 141.62,526.67 v 1754.17 c 0,18.8 -5.7,30.07 -14.05,38.37 -7.92,8.16 -19.43,13.8 -37.92,13.8 h -290.53 c -18.55,0 -30.01,-5.64 -38.18,-13.8 -8.1,-8.3 -13.86,-19.57 -13.86,-38.37 V 5022.11 c 0,-183.02 -13.74,-291.85 -73.32,-357.19 -40.32,-44.19 -97.23,-65.9 -177.32,-65.9 -72.3,0 -127.51,20.13 -169.42,66.28 -56.16,61.98 -73.43,167.14 -73.43,356.81 v 1753.54 c 0,18.8 -5.51,30.07 -13.8,38.37 -8.24,8.16 -19.57,13.8 -38.3,13.8 h -290.22 c -18.81,0 -30.07,-5.64 -38.37,-13.8 -8.29,-8.3 -13.61,-19.57 -13.61,-38.37 V 5021.48 c 0,-255.32 34.64,-415.5 136.12,-526.92 105.41,-116.05 264.69,-177.52 506.35,-177.52"
         style="fill:#990000;fill-opacity:1;fill-rule:nonzero;stroke:none"
         transform="matrix(0.13333333,0,0,-0.13333333,0,910.37333)" />
      <path
         id="path4"
         d="m 1747.95,6514.44 h 373.14 V 4400.29 c 0,-18.55 5.32,-30.01 13.61,-38.18 8.23,-8.22 19.57,-13.74 38.24,-13.74 h 317.63 c 18.67,0 30,5.52 38.17,13.74 8.35,8.17 13.8,19.63 13.8,38.18 v 2114.15 h 373.08 c 18.61,0 29.95,5.51 38.44,13.73 8.03,8.17 13.67,19.63 13.67,38.18 v 209.3 c 0,18.8 -5.64,30.07 -13.67,38.37 -8.49,8.16 -19.83,13.8 -38.44,13.8 H 1747.95 c -18.74,0 -30.07,-5.64 -38.37,-13.8 -8.29,-8.3 -13.86,-19.57 -13.86,-38.37 v -209.3 c 0,-18.55 5.57,-30.01 13.86,-38.18 8.3,-8.22 19.63,-13.73 38.37,-13.73"
         style="fill:#990000;fill-opacity:1;fill-rule:nonzero;stroke:none"
         transform="matrix(0.13333333,0,0,-0.13333333,0,910.37333)" />
      <path
         id="path5"
         d="m 3684.54,2584.78 996.04,522.76 -996.04,523.12 c -1290.05,-501.92 -1398.76,-501.92 -2688.56,0 L 0,3107.54 995.98,2584.78 c 1289.8,501.67 1398.51,501.67 2688.56,0"
         style="fill:#990000;fill-opacity:1;fill-rule:nonzero;stroke:none"
         transform="matrix(0.13333333,0,0,-0.13333333,0,910.37333)" />
      <path
         id="path6"
         d="M 995.98,2338.13 0,1815.14 995.98,1292.39 c 1289.8,501.67 1398.51,501.67 2688.56,0 l 996.04,522.75 -996.04,522.99 c -1290.05,-501.78 -1398.76,-501.78 -2688.56,0"
         style="fill:#990000;fill-opacity:1;fill-rule:nonzero;stroke:none"
         transform="matrix(0.13333333,0,0,-0.13333333,0,910.37333)" />
      <path
         id="path7"
         d="M 995.98,1045.61 0,522.871 995.98,0 c 1289.8,501.66 1398.51,501.66 2688.56,0 l 996.04,522.871 -996.04,522.739 c -1290.05,-501.661 -1398.76,-501.661 -2688.56,0"
         style="fill:#990000;fill-opacity:1;fill-rule:nonzero;stroke:none"
         transform="matrix(0.13333333,0,0,-0.13333333,0,910.37333)" />
    </g>
  </g>
</svg>
