<?xml version="1.0" encoding="utf-8"?>
<!-- Generator: Adobe Illustrator 26.1.0, SVG Export Plug-In . SVG Version: 6.00 Build 0)  -->
<svg version="1.1" id="Layer_1" xmlns="http://www.w3.org/2000/svg" xmlns:xlink="http://www.w3.org/1999/xlink" x="0px" y="0px"
	 viewBox="0 0 800 300.7" style="enable-background:new 0 0 800 300.7;" xml:space="preserve">
<g>
	<rect x="371.7" width="6.5" height="300.7"/>
	<g>
		<polygon points="237.4,149.5 245.5,166 277.5,173 277.5,125.9 251.8,119.8 		"/>
		<polygon points="30.6,47 0,53.9 0,8.6 24.3,3.1 43.8,18.4 		"/>
		<polygon points="277.4,245.3 228.2,257.3 243.8,288.6 277.5,295.5 		"/>
		<polygon points="155.2,240.9 155.3,277.3 126.9,299.9 126.7,247.5 		"/>
		<polygon points="106.1,15.4 155.1,3.5 155.2,53.5 		"/>
		<path d="M39,145.9c0,4.7-1,9.5-3.2,14c-6.6,13.7-21.6,20.6-35.8,17.3l0-62.4C0,114.8,27.5,136.5,39,145.9z"/>
		<path d="M127.6,117.6l27.6,6.2l0.1,50.6c-14.4,3.4-29.8-3.4-36.6-17.3C111.9,143.2,115.9,126.8,127.6,117.6z"/>
	</g>
	<path d="M494.8,4h-19.6v53.1h6.6V35.4h13c7.4,0,13.4-6,13.4-13.4v-4.6C508.2,10,502.1,4,494.8,4z M501.5,22c0,3.8-3,6.8-6.8,6.8
		h-13V10.6h13c3.8,0,6.8,3,6.8,6.8V22z"/>
	<polygon points="534.2,50.5 521,50.5 521,57.1 554,57.1 554,50.5 540.8,50.5 540.8,10.6 554,10.6 554,4 521,4 521,10.6 534.2,10.6
			"/>
	<path d="M581.9,57.1h6.5c7.7,0,14-6,14-13.5V17.4c0-7.4-6.3-13.4-14-13.4h-6.5c-7.7,0-14,6-14,13.4v26.3
		C567.9,51.1,574.2,57.1,581.9,57.1z M574.5,17.4c0-3.7,3.3-6.8,7.5-6.8h6.5c4.2,0,7.5,3,7.5,6.8v26.3c0,3.7-3.4,6.8-7.5,6.8h-6.5
		c-4,0-7.5-3.1-7.5-6.8V17.4z"/>
	<polygon points="620.1,4 620.1,57.1 626.7,57.1 626.7,11.8 644.6,57.1 655.4,57.1 655.4,4 648.8,4 648.8,49.3 630.9,4 	"/>
	<polygon points="680.3,10.6 703.5,10.6 703.5,4 673.6,4 673.6,57.1 703.5,57.1 703.5,50.5 680.3,50.5 680.3,32.5 700.5,32.5
		700.5,25.9 680.3,25.9 	"/>
	<polygon points="750.2,50.5 727,50.5 727,32.5 747.2,32.5 747.2,25.9 727,25.9 727,10.6 750.2,10.6 750.2,4 720.3,4 720.3,57.1
		750.2,57.1 	"/>
	<path d="M790.3,34.9c5.8-1.6,9.7-6.8,9.7-12.9v-4.6C800,10,794,4,786.6,4H767v53.1h6.6V35.4h8.9l9.8,21.7h7.3l-10.1-22L790.3,34.9z
		 M773.7,28.8V10.6h13c3.8,0,6.8,3,6.8,6.8V22c0,3.8-3,6.8-6.8,6.8H773.7z"/>
	<path d="M494.1,122.7h-6.2c-7.4,0-13.4,6-13.4,13.4v26.3c0,7.4,6,13.5,13.4,13.5h6.2c7.4,0,13.4-6,13.4-13.5v-3.7h-6.6v3.7
		c0,3.7-3,6.8-6.8,6.8h-6.2c-3.7,0-6.8-3-6.8-6.8v-26.3c0-3.7,3-6.8,6.8-6.8h6.2c3.8,0,6.8,3,6.8,6.8v3.7h6.6v-3.7
		C507.5,128.7,501.5,122.7,494.1,122.7z"/>
	<polygon points="554.3,169.2 531,169.2 531,151.3 551.3,151.3 551.3,144.6 531,144.6 531,129.3 554.3,129.3 554.3,122.7
		524.4,122.7 524.4,175.8 554.3,175.8 	"/>
	<polygon points="571.1,122.7 571.1,175.8 577.7,175.8 577.7,130.5 595.6,175.8 606.4,175.8 606.4,122.7 599.8,122.7 599.8,168
		581.9,122.7 	"/>
	<polygon points="633.7,175.8 640.4,175.8 640.4,129.3 653.5,129.3 653.5,122.7 620.6,122.7 620.6,129.3 633.7,129.3 	"/>
	<path d="M693.1,175.8h7.3l-10.1-22l0.6-0.2c5.8-1.6,9.7-6.8,9.7-12.9v-4.6c0-7.4-6-13.4-13.4-13.4h-19.6v53.1h6.6v-21.7h8.9
		L693.1,175.8z M674.3,129.3h13c3.8,0,6.8,3,6.8,6.8v4.6c0,3.8-3,6.8-6.8,6.8h-13V129.3z"/>
	<polygon points="747.3,169.2 724,169.2 724,151.3 744.3,151.3 744.3,144.6 724,144.6 724,129.3 747.3,129.3 747.3,122.7
		717.4,122.7 717.4,175.8 747.3,175.8 	"/>
	<polygon points="481.8,272.3 500.6,272.3 500.6,265.7 481.8,265.7 481.8,248 503.5,248 503.5,241.4 475.2,241.4 475.2,294.5
		481.8,294.5 	"/>
	<path d="M539.3,241.4h-6.5c-7.7,0-14,6-14,13.4v26.3c0,7.4,6.3,13.5,14,13.5h6.5c7.7,0,14-6,14-13.5v-26.3
		C553.3,247.4,547.1,241.4,539.3,241.4z M546.8,281.1c0,3.7-3.4,6.8-7.5,6.8h-6.5c-4,0-7.5-3.1-7.5-6.8v-26.3c0-3.7,3.3-6.8,7.5-6.8
		h6.5c4.2,0,7.5,3,7.5,6.8V281.1z"/>
	<path d="M594.2,272.3c5.8-1.6,9.7-6.8,9.7-12.9v-4.7c0-7.4-6-13.4-13.4-13.4H571v53.1h6.6v-21.7h8.9l9.8,21.7h7.3l-10.1-22
		L594.2,272.3z M577.6,266.2V248h13c3.8,0,6.8,3,6.8,6.8v4.7c0,3.8-3,6.8-6.8,6.8H577.6z"/>
	<path d="M654.4,241.4l-13.4,36v17.2h6.6V282h20.5v12.6h6.6v-17.2l-13.4-36H654.4z M648.9,275.4l8.6-22.8h0.9l8.6,22.8H648.9z"/>
	<polygon points="703.1,287.9 689.9,287.9 689.9,294.5 722.9,294.5 722.9,287.9 709.7,287.9 709.7,248 722.9,248 722.9,241.4
		689.9,241.4 689.9,248 703.1,248 	"/>
</g>
</svg>
