<?xml version="1.0" encoding="utf-8"?>
<!-- Generator: Adobe Illustrator 26.1.0, SVG Export Plug-In . SVG Version: 6.00 Build 0)  -->
<svg version="1.1" id="Layer_1" xmlns="http://www.w3.org/2000/svg" xmlns:xlink="http://www.w3.org/1999/xlink" x="0px" y="0px"
	 viewBox="0 0 800 216.5" style="enable-background:new 0 0 800 216.5;" xml:space="preserve">
<style type="text/css">
	.st0{fill:#4B4F63;}
</style>
<g>
	<rect x="267.6" class="st0" width="4.7" height="216.5"/>
	<g>
		<polygon class="st0" points="170.9,107.6 176.8,119.5 199.8,124.6 199.8,90.6 181.3,86.2 		"/>
		<polygon class="st0" points="22,33.8 0,38.8 0,6.2 17.5,2.3 31.5,13.2 		"/>
		<polygon class="st0" points="199.7,176.6 164.3,185.3 175.6,207.8 199.8,212.8 		"/>
		<polygon class="st0" points="111.7,173.5 111.8,199.6 91.4,215.9 91.2,178.2 		"/>
		<polygon class="st0" points="76.4,11.1 111.7,2.5 111.7,38.5 		"/>
		<path class="st0" d="M28.1,105c0,3.4-0.7,6.8-2.3,10.1C21.1,125,10.3,129.9,0,127.6l0-44.9C0,82.7,19.8,98.2,28.1,105z"/>
		<path class="st0" d="M91.8,84.6l19.8,4.5l0,36.4c-10.4,2.5-21.5-2.5-26.3-12.5C80.5,103.1,83.5,91.3,91.8,84.6z"/>
	</g>
	<path class="st0" d="M356.2,3.2h-14.1v38.3h4.8V25.8h9.3c5.3,0,9.6-4.3,9.6-9.6v-3.3C365.8,7.5,361.5,3.2,356.2,3.2z M361.1,16.2
		c0,2.7-2.1,4.9-4.9,4.9h-9.3V8h9.3c2.7,0,4.9,2.1,4.9,4.9V16.2z"/>
	<polygon class="st0" points="389.4,8 398.9,8 398.9,3.2 375.1,3.2 375.1,8 384.6,8 384.6,36.7 375.1,36.7 375.1,41.5 398.9,41.5
		398.9,36.7 389.4,36.7 	"/>
	<path class="st0" d="M418.9,41.5h4.7c5.6,0,10.1-4.4,10.1-9.7V12.9c0-5.3-4.5-9.6-10.1-9.6h-4.7c-5.6,0-10.1,4.3-10.1,9.6v18.9
		C408.8,37.1,413.4,41.5,418.9,41.5z M413.6,12.9c0-2.7,2.4-4.9,5.4-4.9h4.7c3,0,5.4,2.1,5.4,4.9v18.9c0,2.6-2.5,4.9-5.4,4.9h-4.7
		c-2.9,0-5.4-2.2-5.4-4.9V12.9z"/>
	<polygon class="st0" points="471.8,41.5 471.8,3.2 467.1,3.2 467.1,35.8 454.2,3.2 446.4,3.2 446.4,41.5 451.2,41.5 451.2,8.8
		464.1,41.5 	"/>
	<polygon class="st0" points="489.7,23.8 504.3,23.8 504.3,19 489.7,19 489.7,8 506.5,8 506.5,3.2 485,3.2 485,41.5 506.5,41.5
		506.5,36.7 489.7,36.7 	"/>
	<polygon class="st0" points="523.4,23.8 537.9,23.8 537.9,19 523.4,19 523.4,8 540.1,8 540.1,3.2 518.6,3.2 518.6,41.5 540.1,41.5
		540.1,36.7 523.4,36.7 	"/>
	<path class="st0" d="M570.5,41.5h5.2l-7.2-15.9l0.5-0.1c4.2-1.2,7-4.9,7-9.3v-3.3c0-5.3-4.3-9.6-9.6-9.6h-14.1v38.3h4.8V25.8h6.4
		L570.5,41.5z M557,8h9.3c2.7,0,4.9,2.1,4.9,4.9v3.3c0,2.7-2.1,4.9-4.9,4.9H557V8z"/>
	<path class="st0" d="M613.3,41.5h4.5c5.3,0,9.6-4.4,9.6-9.7v-2.7h-4.8v2.7c0,2.7-2.2,4.9-4.9,4.9h-4.5c-2.7,0-4.9-2.2-4.9-4.9V12.9
		c0-2.7,2.2-4.9,4.9-4.9h4.5c2.7,0,4.9,2.1,4.9,4.9v2.7h4.8v-2.7c0-5.3-4.3-9.6-9.6-9.6h-4.5c-5.3,0-9.6,4.3-9.6,9.6v18.9
		C603.6,37.1,608,41.5,613.3,41.5z"/>
	<polygon class="st0" points="644.3,23.8 658.9,23.8 658.9,19 644.3,19 644.3,8 661,8 661,3.2 639.5,3.2 639.5,41.5 661,41.5
		661,36.7 644.3,36.7 	"/>
	<polygon class="st0" points="698.6,41.5 698.6,3.2 693.8,3.2 693.8,35.8 680.9,3.2 673.1,3.2 673.1,41.5 677.9,41.5 677.9,8.8
		690.8,41.5 	"/>
	<polygon class="st0" points="718.2,41.5 723,41.5 723,8 732.5,8 732.5,3.2 708.8,3.2 708.8,8 718.2,8 	"/>
	<path class="st0" d="M759.4,25.5c4.2-1.2,7-4.9,7-9.3v-3.3c0-5.3-4.3-9.6-9.6-9.6h-14.1v38.3h4.8V25.8h6.4l7.1,15.6h5.2L759,25.6
		L759.4,25.5z M747.5,21.1V8h9.3c2.7,0,4.9,2.1,4.9,4.9v3.3c0,2.7-2.1,4.9-4.9,4.9H747.5z"/>
	<polygon class="st0" points="800,36.7 783.3,36.7 783.3,23.8 797.8,23.8 797.8,19 783.3,19 783.3,8 800,8 800,3.2 778.5,3.2
		778.5,41.5 800,41.5 	"/>
	<polygon class="st0" points="360.4,105.1 346.9,105.1 346.9,92.4 362.5,92.4 362.5,87.6 342.1,87.6 342.1,125.9 346.9,125.9
		346.9,109.9 360.4,109.9 	"/>
	<path class="st0" d="M383.6,125.9h4.7c5.6,0,10.1-4.4,10.1-9.7V97.3c0-5.3-4.5-9.6-10.1-9.6h-4.7c-5.6,0-10.1,4.3-10.1,9.6v18.9
		C373.5,121.5,378,125.9,383.6,125.9z M378.2,97.3c0-2.7,2.4-4.9,5.4-4.9h4.7c3,0,5.4,2.1,5.4,4.9v18.9c0,2.6-2.5,4.9-5.4,4.9h-4.7
		c-2.9,0-5.4-2.2-5.4-4.9V97.3z"/>
	<path class="st0" d="M429.4,125.9h5.2l-7.2-15.9l0.5-0.1c4.2-1.2,7-4.9,7-9.3v-3.3c0-5.3-4.3-9.6-9.6-9.6h-14.1v38.3h4.8v-15.6h6.4
		L429.4,125.9z M415.9,92.4h9.3c2.7,0,4.9,2.1,4.9,4.9v3.3c0,2.7-2.1,4.9-4.9,4.9h-9.3V92.4z"/>
	<path class="st0" d="M461.5,125.9h4.8v-9H481v9h4.8v-12.4l-9.6-25.9h-5l-9.6,25.9V125.9z M473.3,95.6h0.7l6.2,16.4h-13L473.3,95.6z
		"/>
	<path class="st0" d="M502.7,110.3h6.4l7.1,15.6h5.2l-7.2-15.9l0.5-0.1c4.2-1.2,7-4.9,7-9.3v-3.3c0-5.3-4.3-9.6-9.6-9.6h-14.1v38.3
		h4.8V110.3z M502.7,92.4h9.3c2.7,0,4.9,2.1,4.9,4.9v3.3c0,2.7-2.1,4.9-4.9,4.9h-9.3V92.4z"/>
	<polygon class="st0" points="540.2,125.9 545,125.9 545,92.4 554.5,92.4 554.5,87.6 530.8,87.6 530.8,92.4 540.2,92.4 	"/>
	<polygon class="st0" points="577.4,92.4 586.9,92.4 586.9,87.6 563.1,87.6 563.1,92.4 572.6,92.4 572.6,121.1 563.1,121.1
		563.1,125.9 586.9,125.9 586.9,121.1 577.4,121.1 	"/>
	<polygon class="st0" points="602.2,92.4 617.8,92.4 617.8,87.6 597.4,87.6 597.4,125.9 602.2,125.9 602.2,109.9 615.8,109.9
		615.8,105.1 602.2,105.1 	"/>
	<polygon class="st0" points="641.4,92.4 650.9,92.4 650.9,87.6 627.2,87.6 627.2,92.4 636.7,92.4 636.7,121.1 627.2,121.1
		627.2,125.9 650.9,125.9 650.9,121.1 641.4,121.1 	"/>
	<path class="st0" d="M684.7,113.5h-4.8v2.7c0,2.7-2.2,4.9-4.9,4.9h-4.5c-2.7,0-4.9-2.2-4.9-4.9V97.3c0-2.7,2.2-4.9,4.9-4.9h4.5
		c2.7,0,4.9,2.1,4.9,4.9v2.7h4.8v-2.7c0-5.3-4.3-9.6-9.6-9.6h-4.5c-5.3,0-9.6,4.3-9.6,9.6v18.9c0,5.3,4.3,9.7,9.6,9.7h4.5
		c5.3,0,9.6-4.4,9.6-9.7V113.5z"/>
	<polygon class="st0" points="708.5,92.4 718,92.4 718,87.6 694.2,87.6 694.2,92.4 703.7,92.4 703.7,121.1 694.2,121.1 694.2,125.9
		718,125.9 718,121.1 708.5,121.1 	"/>
	<path class="st0" d="M737.4,87.6l-9.6,25.9v12.4h4.8v-9h14.8v9h4.8v-12.4l-9.6-25.9H737.4z M733.4,112.1l6.2-16.4h0.7l6.2,16.4
		H733.4z"/>
	<polygon class="st0" points="768.9,87.6 764.1,87.6 764.1,125.9 785,125.9 785,121.1 768.9,121.1 	"/>
	<polygon class="st0" points="354.7,176.8 364.2,176.8 364.2,172 340.4,172 340.4,176.8 349.9,176.8 349.9,205.5 340.4,205.5
		340.4,210.3 364.2,210.3 364.2,205.5 354.7,205.5 	"/>
	<polygon class="st0" points="374.7,172 374.7,210.3 379.5,210.3 379.5,177.7 392.4,210.3 400.1,210.3 400.1,172 395.3,172
		395.3,204.7 382.4,172 	"/>
	<polygon class="st0" points="419.8,210.3 424.6,210.3 424.6,176.8 434,176.8 434,172 410.3,172 410.3,176.8 419.8,176.8 	"/>
	<polygon class="st0" points="449,192.6 463.6,192.6 463.6,187.8 449,187.8 449,176.8 465.7,176.8 465.7,172 444.2,172 444.2,210.3
		465.7,210.3 465.7,205.5 449,205.5 	"/>
	<polygon class="st0" points="482.6,172 477.8,172 477.8,210.3 498.7,210.3 498.7,205.5 482.6,205.5 	"/>
	<polygon class="st0" points="513.8,172 509,172 509,210.3 529.8,210.3 529.8,205.5 513.8,205.5 	"/>
	<polygon class="st0" points="553.2,176.8 562.7,176.8 562.7,172 538.9,172 538.9,176.8 548.4,176.8 548.4,205.5 538.9,205.5
		538.9,210.3 562.7,210.3 562.7,205.5 553.2,205.5 	"/>
	<path class="st0" d="M586.8,172h-4.5c-5.3,0-9.6,4.3-9.6,9.6v18.9c0,5.3,4.3,9.7,9.6,9.7h4.5c5.3,0,9.6-4.4,9.6-9.7v-10.5h-13.1
		v4.8h8.4v5.8c0,2.7-2.2,4.9-4.9,4.9h-4.5c-2.7,0-4.9-2.2-4.9-4.9v-18.9c0-2.7,2.2-4.9,4.9-4.9h4.5c2.7,0,4.9,2.1,4.9,4.9v2.7h4.8
		v-2.7C596.4,176.4,592.1,172,586.8,172z"/>
	<polygon class="st0" points="630.6,205.5 613.8,205.5 613.8,192.6 628.4,192.6 628.4,187.8 613.8,187.8 613.8,176.8 630.6,176.8
		630.6,172 609.1,172 609.1,210.3 630.6,210.3 	"/>
	<polygon class="st0" points="642.7,172 642.7,210.3 647.4,210.3 647.4,177.7 660.3,210.3 668.1,210.3 668.1,172 663.3,172
		663.3,204.7 650.4,172 	"/>
	<path class="st0" d="M695,172h-4.5c-5.3,0-9.6,4.3-9.6,9.6v18.9c0,5.3,4.3,9.7,9.6,9.7h4.5c5.3,0,9.6-4.4,9.6-9.7v-2.7h-4.8v2.7
		c0,2.7-2.2,4.9-4.9,4.9h-4.5c-2.7,0-4.9-2.2-4.9-4.9v-18.9c0-2.7,2.2-4.9,4.9-4.9h4.5c2.7,0,4.9,2.1,4.9,4.9v2.7h4.8v-2.7
		C704.6,176.4,700.3,172,695,172z"/>
	<polygon class="st0" points="738.2,205.5 721.5,205.5 721.5,192.6 736.1,192.6 736.1,187.8 721.5,187.8 721.5,176.8 738.2,176.8
		738.2,172 716.7,172 716.7,210.3 738.2,210.3 	"/>
</g>
</svg>
