<?xml version="1.0" encoding="utf-8"?>
<!-- Generator: Adobe Illustrator 26.1.0, SVG Export Plug-In . SVG Version: 6.00 Build 0)  -->
<svg version="1.1" id="Layer_1" xmlns="http://www.w3.org/2000/svg" xmlns:xlink="http://www.w3.org/1999/xlink" x="0px" y="0px"
	 viewBox="0 0 800 159.3" style="enable-background:new 0 0 800 159.3;" xml:space="preserve">
<style type="text/css">
	.st0{fill:#4B4F63;}
</style>
<g>
	<rect x="196.9" class="st0" width="3.4" height="159.3"/>
	<g>
		<polygon class="st0" points="125.8,79.2 130,87.9 147,91.6 147,66.7 133.4,63.4 		"/>
		<polygon class="st0" points="16.2,24.9 0,28.5 0,4.5 12.9,1.7 23.2,9.7 		"/>
		<polygon class="st0" points="146.9,129.9 120.8,136.3 129.2,152.9 147,156.5 		"/>
		<polygon class="st0" points="82.2,127.6 82.2,146.9 67.2,158.9 67.1,131.1 		"/>
		<polygon class="st0" points="56.2,8.2 82.2,1.8 82.2,28.4 		"/>
		<path class="st0" d="M20.7,77.3c0,2.5-0.5,5-1.7,7.4c-3.5,7.3-11.5,10.9-19,9.2l0-33.1C0,60.8,14.6,72.3,20.7,77.3z"/>
		<path class="st0" d="M67.6,62.3l14.6,3.3l0,26.8c-7.6,1.8-15.8-1.8-19.4-9.2C59.2,75.8,61.4,67.2,67.6,62.3z"/>
	</g>
	<g>
		<path class="st0" d="M269.2,43.2v-2.5c0-3.9-3.2-7.1-7.1-7.1h-10.4v28.1h3.5V50.3h6.9C266,50.3,269.2,47.1,269.2,43.2z
			 M255.2,37.1h6.9c2,0,3.6,1.6,3.6,3.6v2.5c0,2-1.6,3.6-3.6,3.6h-6.9V37.1z"/>
		<polygon class="st0" points="286.5,37.1 293.4,37.1 293.4,33.6 276,33.6 276,37.1 283,37.1 283,58.2 276,58.2 276,61.8
			293.4,61.8 293.4,58.2 286.5,58.2 		"/>
		<path class="st0" d="M308.2,61.8h3.4c4.1,0,7.4-3.2,7.4-7.1V40.7c0-3.9-3.3-7.1-7.4-7.1h-3.4c-4.1,0-7.4,3.2-7.4,7.1v13.9
			C300.8,58.6,304.1,61.8,308.2,61.8z M304.3,40.7c0-2,1.8-3.6,3.9-3.6h3.4c2.2,0,3.9,1.6,3.9,3.6v13.9c0,1.9-1.8,3.6-3.9,3.6h-3.4
			c-2.1,0-3.9-1.6-3.9-3.6V40.7z"/>
		<polygon class="st0" points="347.1,61.8 347.1,33.6 343.6,33.6 343.6,57.6 334.1,33.6 328.4,33.6 328.4,61.8 332,61.8 332,37.8
			341.4,61.8 		"/>
		<polygon class="st0" points="360.3,48.7 371,48.7 371,45.2 360.3,45.2 360.3,37.1 372.6,37.1 372.6,33.6 356.8,33.6 356.8,61.8
			372.6,61.8 372.6,58.2 360.3,58.2 		"/>
		<polygon class="st0" points="385,48.7 395.8,48.7 395.8,45.2 385,45.2 385,37.1 397.4,37.1 397.4,33.6 381.5,33.6 381.5,61.8
			397.4,61.8 397.4,58.2 385,58.2 		"/>
		<path class="st0" d="M418.6,50c3.1-0.9,5.2-3.6,5.2-6.8v-2.5c0-3.9-3.2-7.1-7.1-7.1h-10.4v28.1h3.5V50.3h4.7l5.2,11.5h3.9
			l-5.3-11.7L418.6,50z M409.8,46.8v-9.6h6.9c2,0,3.6,1.6,3.6,3.6v2.5c0,2-1.6,3.6-3.6,3.6H409.8z"/>
		<path class="st0" d="M451.2,61.8h3.3c3.9,0,7.1-3.2,7.1-7.1v-2h-3.5v2c0,2-1.6,3.6-3.6,3.6h-3.3c-2,0-3.6-1.6-3.6-3.6V40.7
			c0-2,1.6-3.6,3.6-3.6h3.3c2,0,3.6,1.6,3.6,3.6v2h3.5v-2c0-3.9-3.2-7.1-7.1-7.1h-3.3c-3.9,0-7.1,3.2-7.1,7.1v13.9
			C444.1,58.6,447.3,61.8,451.2,61.8z"/>
		<polygon class="st0" points="474,48.7 484.7,48.7 484.7,45.2 474,45.2 474,37.1 486.3,37.1 486.3,33.6 470.5,33.6 470.5,61.8
			486.3,61.8 486.3,58.2 474,58.2 		"/>
		<polygon class="st0" points="510.4,57.6 501,33.6 495.2,33.6 495.2,61.8 498.8,61.8 498.8,37.8 508.3,61.8 514,61.8 514,33.6
			510.4,33.6 		"/>
		<polygon class="st0" points="521.4,37.1 528.4,37.1 528.4,61.8 531.9,61.8 531.9,37.1 538.9,37.1 538.9,33.6 521.4,33.6 		"/>
		<path class="st0" d="M559.9,61.8h3.9l-5.3-11.7l0.3-0.1c3.1-0.9,5.2-3.6,5.2-6.8v-2.5c0-3.9-3.2-7.1-7.1-7.1h-10.4v28.1h3.5V50.3
			h4.7L559.9,61.8z M549.9,37.1h6.9c2,0,3.6,1.6,3.6,3.6v2.5c0,2-1.6,3.6-3.6,3.6h-6.9V37.1z"/>
		<polygon class="st0" points="588.6,58.2 576.3,58.2 576.3,48.7 587,48.7 587,45.2 576.3,45.2 576.3,37.1 588.6,37.1 588.6,33.6
			572.8,33.6 572.8,61.8 588.6,61.8 		"/>
		<polygon class="st0" points="612.9,37.1 624.4,37.1 624.4,33.6 609.4,33.6 609.4,61.8 612.9,61.8 612.9,50 622.9,50 622.9,46.5
			612.9,46.5 		"/>
		<path class="st0" d="M639.9,61.8h3.4c4.1,0,7.4-3.2,7.4-7.1V40.7c0-3.9-3.3-7.1-7.4-7.1h-3.4c-4.1,0-7.4,3.2-7.4,7.1v13.9
			C632.5,58.6,635.8,61.8,639.9,61.8z M636,40.7c0-2,1.8-3.6,3.9-3.6h3.4c2.2,0,3.9,1.6,3.9,3.6v13.9c0,1.9-1.8,3.6-3.9,3.6h-3.4
			c-2.1,0-3.9-1.6-3.9-3.6V40.7z"/>
		<path class="st0" d="M673.6,61.8h3.9l-5.3-11.7l0.3-0.1c3.1-0.9,5.2-3.6,5.2-6.8v-2.5c0-3.9-3.2-7.1-7.1-7.1h-10.4v28.1h3.5V50.3
			h4.7L673.6,61.8z M663.6,37.1h6.9c2,0,3.6,1.6,3.6,3.6v2.5c0,2-1.6,3.6-3.6,3.6h-6.9V37.1z"/>
		<path class="st0" d="M265,124.6h3.5v-9.1l-7.1-19.1h-3.7l-7.1,19.1v9.1h3.5V118H265V124.6z M254.8,114.5l4.5-12.1h0.5l4.5,12.1
			H254.8z"/>
		<path class="st0" d="M294.8,103.6c0-3.9-3.2-7.1-7.1-7.1h-10.4v28.1h3.5v-11.5h4.7l5.2,11.5h3.9l-5.3-11.7l0.3-0.1
			c3.1-0.9,5.2-3.6,5.2-6.8V103.6z M291.3,106.1c0,2-1.6,3.6-3.6,3.6h-6.9V100h6.9c2,0,3.6,1.6,3.6,3.6V106.1z"/>
		<polygon class="st0" points="308.5,124.6 312,124.6 312,100 319,100 319,96.5 301.6,96.5 301.6,100 308.5,100 		"/>
		<polygon class="st0" points="335.9,100 342.9,100 342.9,96.5 325.4,96.5 325.4,100 332.4,100 332.4,121.1 325.4,121.1
			325.4,124.6 342.9,124.6 342.9,121.1 335.9,121.1 		"/>
		<polygon class="st0" points="364.1,109.3 354.1,109.3 354.1,100 365.6,100 365.6,96.5 350.6,96.5 350.6,124.6 354.1,124.6
			354.1,112.9 364.1,112.9 		"/>
		<polygon class="st0" points="383,100 390,100 390,96.5 372.5,96.5 372.5,100 379.5,100 379.5,121.1 372.5,121.1 372.5,124.6
			390,124.6 390,121.1 383,121.1 		"/>
		<path class="st0" d="M407.7,96.5h-3.3c-3.9,0-7.1,3.2-7.1,7.1v13.9c0,3.9,3.2,7.1,7.1,7.1h3.3c3.9,0,7.1-3.2,7.1-7.1v-2h-3.5v2
			c0,2-1.6,3.6-3.6,3.6h-3.3c-2,0-3.6-1.6-3.6-3.6v-13.9c0-2,1.6-3.6,3.6-3.6h3.3c2,0,3.6,1.6,3.6,3.6v2h3.5v-2
			C414.8,99.7,411.6,96.5,407.7,96.5z"/>
		<polygon class="st0" points="428.8,121.1 421.8,121.1 421.8,124.6 439.3,124.6 439.3,121.1 432.3,121.1 432.3,100 439.3,100
			439.3,96.5 421.8,96.5 421.8,100 428.8,100 		"/>
		<path class="st0" d="M453.6,96.5l-7.1,19.1v9.1h3.5V118h10.9v6.6h3.5v-9.1l-7.1-19.1H453.6z M450.7,114.5l4.5-12.1h0.5l4.5,12.1
			H450.7z"/>
		<polygon class="st0" points="476.8,96.5 473.3,96.5 473.3,124.6 488.6,124.6 488.6,121.1 476.8,121.1 		"/>
		<polygon class="st0" points="514,121.1 507,121.1 507,124.6 524.5,124.6 524.5,121.1 517.5,121.1 517.5,100 524.5,100 524.5,96.5
			507,96.5 507,100 514,100 		"/>
		<polygon class="st0" points="532.3,96.5 532.3,124.6 535.8,124.6 535.8,100.6 545.3,124.6 551,124.6 551,96.5 547.4,96.5
			547.4,120.5 538,96.5 		"/>
		<polygon class="st0" points="565.4,124.6 568.9,124.6 568.9,100 575.9,100 575.9,96.5 558.5,96.5 558.5,100 565.4,100 		"/>
		<polygon class="st0" points="599.3,121.1 586.9,121.1 586.9,111.6 597.6,111.6 597.6,108.1 586.9,108.1 586.9,100 599.3,100
			599.3,96.5 583.4,96.5 583.4,124.6 599.3,124.6 		"/>
		<polygon class="st0" points="611.7,96.5 608.2,96.5 608.2,124.6 623.5,124.6 623.5,121.1 611.7,121.1 		"/>
		<polygon class="st0" points="634.8,96.5 631.3,96.5 631.3,124.6 646.7,124.6 646.7,121.1 634.8,121.1 		"/>
		<polygon class="st0" points="660.3,121.1 653.4,121.1 653.4,124.6 670.8,124.6 670.8,121.1 663.9,121.1 663.9,100 670.8,100
			670.8,96.5 653.4,96.5 653.4,100 660.3,100 		"/>
		<path class="st0" d="M688.6,96.5h-3.3c-3.9,0-7.1,3.2-7.1,7.1v13.9c0,3.9,3.2,7.1,7.1,7.1h3.3c3.9,0,7.1-3.2,7.1-7.1v-7.8H686v3.5
			h6.2v4.2c0,2-1.6,3.6-3.6,3.6h-3.3c-2,0-3.6-1.6-3.6-3.6v-13.9c0-2,1.6-3.6,3.6-3.6h3.3c2,0,3.6,1.6,3.6,3.6v2h3.5v-2
			C695.7,99.7,692.5,96.5,688.6,96.5z"/>
		<polygon class="st0" points="720.8,121.1 708.5,121.1 708.5,111.6 719.2,111.6 719.2,108.1 708.5,108.1 708.5,100 720.8,100
			720.8,96.5 704.9,96.5 704.9,124.6 720.8,124.6 		"/>
		<polygon class="st0" points="729.7,96.5 729.7,124.6 733.2,124.6 733.2,100.6 742.7,124.6 748.4,124.6 748.4,96.5 744.9,96.5
			744.9,120.5 735.4,96.5 		"/>
		<path class="st0" d="M768.1,96.5h-3.3c-3.9,0-7.1,3.2-7.1,7.1v13.9c0,3.9,3.2,7.1,7.1,7.1h3.3c3.9,0,7.1-3.2,7.1-7.1v-2h-3.5v2
			c0,2-1.6,3.6-3.6,3.6h-3.3c-2,0-3.6-1.6-3.6-3.6v-13.9c0-2,1.6-3.6,3.6-3.6h3.3c2,0,3.6,1.6,3.6,3.6v2h3.5v-2
			C775.2,99.7,772.1,96.5,768.1,96.5z"/>
		<polygon class="st0" points="800,121.1 787.7,121.1 787.7,111.6 798.4,111.6 798.4,108.1 787.7,108.1 787.7,100 800,100 800,96.5
			784.2,96.5 784.2,124.6 800,124.6 		"/>
	</g>
</g>
</svg>
