<?xml version="1.0" encoding="utf-8"?>
<!-- Generator: Adobe Illustrator 26.1.0, SVG Export Plug-In . SVG Version: 6.00 Build 0)  -->
<svg version="1.1" id="Layer_1" xmlns="http://www.w3.org/2000/svg" xmlns:xlink="http://www.w3.org/1999/xlink" x="0px" y="0px"
	 viewBox="0 0 800 213.1" style="enable-background:new 0 0 800 213.1;" xml:space="preserve">
<style type="text/css">
	.st0{fill:#FFFFFF;}
</style>
<g>
	<rect x="263.4" class="st0" width="4.6" height="213.1"/>
	<g>
		<polygon class="st0" points="168.3,105.9 174,117.7 196.7,122.6 196.6,89.2 178.5,84.9 		"/>
		<polygon class="st0" points="21.7,33.3 0,38.2 0,6.1 17.2,2.2 31,13 		"/>
		<polygon class="st0" points="196.6,173.8 161.7,182.4 172.8,204.5 196.7,209.4 		"/>
		<polygon class="st0" points="110,170.7 110,196.5 90,212.6 89.8,175.4 		"/>
		<polygon class="st0" points="75.2,10.9 109.9,2.5 110,37.9 		"/>
		<path class="st0" d="M27.7,103.4c0,3.3-0.7,6.7-2.2,9.9C20.8,123,10.1,127.9,0,125.6l0-44.2C0,81.4,19.5,96.7,27.7,103.4z"/>
		<path class="st0" d="M90.4,83.3l19.5,4.4l0,35.9c-10.2,2.4-21.1-2.4-25.9-12.3C79.3,101.5,82.2,89.9,90.4,83.3z"/>
	</g>
	<g>
		<path class="st0" d="M350.6,3.2h-13.9v37.7h4.7V25.4h9.2c5.2,0,9.5-4.3,9.5-9.5v-3.3C360.1,7.4,355.9,3.2,350.6,3.2z M355.4,15.9
			c0,2.7-2.1,4.8-4.8,4.8h-9.2V7.9h9.2c2.7,0,4.8,2.1,4.8,4.8V15.9z"/>
		<polygon class="st0" points="384.3,7.9 393.7,7.9 393.7,3.2 370.3,3.2 370.3,7.9 379.6,7.9 379.6,36.1 370.3,36.1 370.3,40.8
			393.7,40.8 393.7,36.1 384.3,36.1 		"/>
		<path class="st0" d="M414.5,40.8h4.6c5.5,0,9.9-4.3,9.9-9.5V12.7c0-5.2-4.5-9.5-9.9-9.5h-4.6c-5.5,0-9.9,4.3-9.9,9.5v18.6
			C404.5,36.5,409,40.8,414.5,40.8z M409.2,12.7c0-2.6,2.4-4.8,5.3-4.8h4.6c3,0,5.3,2.1,5.3,4.8v18.6c0,2.6-2.4,4.8-5.3,4.8h-4.6
			c-2.9,0-5.3-2.2-5.3-4.8V12.7z"/>
		<polygon class="st0" points="467.6,40.8 467.6,3.2 462.9,3.2 462.9,35.3 450.2,3.2 442.6,3.2 442.6,40.8 447.3,40.8 447.3,8.7
			460,40.8 		"/>
		<polygon class="st0" points="486.2,23.4 500.6,23.4 500.6,18.7 486.2,18.7 486.2,7.9 502.7,7.9 502.7,3.2 481.5,3.2 481.5,40.8
			502.7,40.8 502.7,36.1 486.2,36.1 		"/>
		<polygon class="st0" points="520.4,23.4 534.7,23.4 534.7,18.7 520.4,18.7 520.4,7.9 536.9,7.9 536.9,3.2 515.7,3.2 515.7,40.8
			536.9,40.8 536.9,36.1 520.4,36.1 		"/>
		<path class="st0" d="M567.8,40.8h5.2l-7.1-15.6l0.4-0.1c4.1-1.1,6.9-4.8,6.9-9.1v-3.3c0-5.2-4.3-9.5-9.5-9.5h-13.9v37.7h4.7V25.4
			h6.3L567.8,40.8z M554.5,7.9h9.2c2.7,0,4.8,2.1,4.8,4.8v3.3c0,2.7-2.1,4.8-4.8,4.8h-9.2V7.9z"/>
		<path class="st0" d="M611,40.8h4.4c5.2,0,9.5-4.3,9.5-9.5v-2.6h-4.7v2.6c0,2.6-2.1,4.8-4.8,4.8H611c-2.6,0-4.8-2.1-4.8-4.8V12.7
			c0-2.6,2.1-4.8,4.8-4.8h4.4c2.7,0,4.8,2.1,4.8,4.8v2.6h4.7v-2.6c0-5.2-4.3-9.5-9.5-9.5H611c-5.2,0-9.5,4.3-9.5,9.5v18.6
			C601.5,36.5,605.8,40.8,611,40.8z"/>
		<polygon class="st0" points="642.6,23.4 656.9,23.4 656.9,18.7 642.6,18.7 642.6,7.9 659,7.9 659,3.2 637.9,3.2 637.9,40.8
			659,40.8 659,36.1 642.6,36.1 		"/>
		<polygon class="st0" points="697,40.8 697,3.2 692.3,3.2 692.3,35.3 679.6,3.2 672,3.2 672,40.8 676.7,40.8 676.7,8.7 689.4,40.8
					"/>
		<polygon class="st0" points="717.4,40.8 722.1,40.8 722.1,7.9 731.5,7.9 731.5,3.2 708.1,3.2 708.1,7.9 717.4,7.9 		"/>
		<path class="st0" d="M759,25.1c4.1-1.1,6.9-4.8,6.9-9.1v-3.3c0-5.2-4.3-9.5-9.5-9.5h-13.9v37.7h4.7V25.4h6.3l7,15.4h5.2l-7.1-15.6
			L759,25.1z M747.2,20.7V7.9h9.2c2.7,0,4.8,2.1,4.8,4.8v3.3c0,2.7-2.1,4.8-4.8,4.8H747.2z"/>
		<polygon class="st0" points="800,36.1 783.5,36.1 783.5,23.4 797.9,23.4 797.9,18.7 783.5,18.7 783.5,7.9 800,7.9 800,3.2
			778.8,3.2 778.8,40.8 800,40.8 		"/>
		<polygon class="st0" points="354.8,103.4 341.4,103.4 341.4,91 356.8,91 356.8,86.3 336.7,86.3 336.7,123.9 341.4,123.9
			341.4,108.1 354.8,108.1 		"/>
		<path class="st0" d="M378.6,123.9h4.6c5.5,0,9.9-4.3,9.9-9.5V95.7c0-5.2-4.5-9.5-9.9-9.5h-4.6c-5.5,0-9.9,4.3-9.9,9.5v18.6
			C368.7,119.6,373.2,123.9,378.6,123.9z M373.4,95.7c0-2.6,2.4-4.8,5.3-4.8h4.6c3,0,5.3,2.1,5.3,4.8v18.6c0,2.6-2.4,4.8-5.3,4.8
			h-4.6c-2.9,0-5.3-2.2-5.3-4.8V95.7z"/>
		<path class="st0" d="M424.7,123.9h5.2l-7.1-15.6l0.4-0.1c4.1-1.1,6.9-4.8,6.9-9.1v-3.3c0-5.2-4.3-9.5-9.5-9.5h-13.9v37.7h4.7
			v-15.4h6.3L424.7,123.9z M411.4,91h9.2c2.7,0,4.8,2.1,4.8,4.8V99c0,2.7-2.1,4.8-4.8,4.8h-9.2V91z"/>
		<path class="st0" d="M457.4,123.9h4.7V115h14.5v8.9h4.7v-12.2l-9.5-25.5h-4.9l-9.5,25.5V123.9z M469.1,94.1h0.7l6.1,16.2H463
			L469.1,94.1z"/>
		<path class="st0" d="M499,108.5h6.3l7,15.4h5.2l-7.1-15.6l0.4-0.1c4.1-1.1,6.9-4.8,6.9-9.1v-3.3c0-5.2-4.3-9.5-9.5-9.5h-13.9v37.7
			h4.7V108.5z M499,91h9.2c2.7,0,4.8,2.1,4.8,4.8V99c0,2.7-2.1,4.8-4.8,4.8H499V91z"/>
		<polygon class="st0" points="537,123.9 541.7,123.9 541.7,91 551,91 551,86.3 527.7,86.3 527.7,91 537,91 		"/>
		<polygon class="st0" points="574.6,91 584,91 584,86.3 560.6,86.3 560.6,91 569.9,91 569.9,119.2 560.6,119.2 560.6,123.9
			584,123.9 584,119.2 574.6,119.2 		"/>
		<polygon class="st0" points="600.1,91 615.5,91 615.5,86.3 595.4,86.3 595.4,123.9 600.1,123.9 600.1,108.1 613.4,108.1
			613.4,103.4 600.1,103.4 		"/>
		<polygon class="st0" points="639.7,91 649.1,91 649.1,86.3 625.7,86.3 625.7,91 635,91 635,119.2 625.7,119.2 625.7,123.9
			649.1,123.9 649.1,119.2 639.7,119.2 		"/>
		<path class="st0" d="M683.3,111.7h-4.7v2.6c0,2.6-2.1,4.8-4.8,4.8h-4.4c-2.6,0-4.8-2.1-4.8-4.8V95.7c0-2.6,2.1-4.8,4.8-4.8h4.4
			c2.7,0,4.8,2.1,4.8,4.8v2.6h4.7v-2.6c0-5.2-4.3-9.5-9.5-9.5h-4.4c-5.2,0-9.5,4.3-9.5,9.5v18.6c0,5.3,4.3,9.5,9.5,9.5h4.4
			c5.2,0,9.5-4.3,9.5-9.5V111.7z"/>
		<polygon class="st0" points="707.8,91 717.2,91 717.2,86.3 693.8,86.3 693.8,91 703.1,91 703.1,119.2 693.8,119.2 693.8,123.9
			717.2,123.9 717.2,119.2 707.8,119.2 		"/>
		<path class="st0" d="M737.4,86.3l-9.5,25.5v12.2h4.7V115h14.5v8.9h4.7v-12.2l-9.5-25.5H737.4z M733.4,110.3l6.1-16.2h0.7l6.1,16.2
			H733.4z"/>
		<polygon class="st0" points="769.4,86.3 764.7,86.3 764.7,123.9 785.2,123.9 785.2,119.2 769.4,119.2 		"/>
		<polygon class="st0" points="349.1,174 358.5,174 358.5,169.3 335.1,169.3 335.1,174 344.4,174 344.4,202.3 335.1,202.3
			335.1,207 358.5,207 358.5,202.3 349.1,202.3 		"/>
		<polygon class="st0" points="369.9,169.3 369.9,207 374.6,207 374.6,174.9 387.3,207 394.9,207 394.9,169.3 390.2,169.3
			390.2,201.5 377.5,169.3 		"/>
		<polygon class="st0" points="415.3,207 420,207 420,174 429.3,174 429.3,169.3 406,169.3 406,174 415.3,174 		"/>
		<polygon class="st0" points="445.1,189.6 459.4,189.6 459.4,184.9 445.1,184.9 445.1,174 461.6,174 461.6,169.3 440.4,169.3
			440.4,207 461.6,207 461.6,202.3 445.1,202.3 		"/>
		<polygon class="st0" points="479.2,169.3 474.5,169.3 474.5,207 495.1,207 495.1,202.3 479.2,202.3 		"/>
		<polygon class="st0" points="510.9,169.3 506.2,169.3 506.2,207 526.8,207 526.8,202.3 510.9,202.3 		"/>
		<polygon class="st0" points="550.8,174 560.1,174 560.1,169.3 536.8,169.3 536.8,174 546.1,174 546.1,202.3 536.8,202.3
			536.8,207 560.1,207 560.1,202.3 550.8,202.3 		"/>
		<path class="st0" d="M584.9,169.3h-4.4c-5.2,0-9.5,4.3-9.5,9.5v18.6c0,5.3,4.3,9.5,9.5,9.5h4.4c5.2,0,9.5-4.3,9.5-9.5v-10.4h-12.9
			v4.7h8.2v5.7c0,2.6-2.1,4.8-4.8,4.8h-4.4c-2.6,0-4.8-2.1-4.8-4.8v-18.6c0-2.6,2.1-4.8,4.8-4.8h4.4c2.7,0,4.8,2.1,4.8,4.8v2.6h4.7
			v-2.6C594.4,173.6,590.1,169.3,584.9,169.3z"/>
		<polygon class="st0" points="629,202.3 612.6,202.3 612.6,189.6 626.9,189.6 626.9,184.9 612.6,184.9 612.6,174 629,174
			629,169.3 607.9,169.3 607.9,207 629,207 		"/>
		<polygon class="st0" points="642,169.3 642,207 646.7,207 646.7,174.9 659.4,207 667,207 667,169.3 662.3,169.3 662.3,201.5
			649.6,169.3 		"/>
		<path class="st0" d="M694.5,169.3h-4.4c-5.2,0-9.5,4.3-9.5,9.5v18.6c0,5.3,4.3,9.5,9.5,9.5h4.4c5.2,0,9.5-4.3,9.5-9.5v-2.6h-4.7
			v2.6c0,2.6-2.1,4.8-4.8,4.8h-4.4c-2.6,0-4.8-2.1-4.8-4.8v-18.6c0-2.6,2.1-4.8,4.8-4.8h4.4c2.7,0,4.8,2.1,4.8,4.8v2.6h4.7v-2.6
			C704,173.6,699.7,169.3,694.5,169.3z"/>
		<polygon class="st0" points="738.2,202.3 721.7,202.3 721.7,189.6 736,189.6 736,184.9 721.7,184.9 721.7,174 738.2,174
			738.2,169.3 717,169.3 717,207 738.2,207 		"/>
	</g>
</g>
</svg>
