<?xml version="1.0" encoding="utf-8"?>
<!-- Generator: Adobe Illustrator 26.1.0, SVG Export Plug-In . SVG Version: 6.00 Build 0)  -->
<svg version="1.1" id="Layer_1" xmlns="http://www.w3.org/2000/svg" xmlns:xlink="http://www.w3.org/1999/xlink" x="0px" y="0px"
	 viewBox="0 0 800 156.1" style="enable-background:new 0 0 800 156.1;" xml:space="preserve">
<style type="text/css">
	.st0{fill:#FFFFFF;}
</style>
<g>
	<rect x="192.9" class="st0" width="3.4" height="156.1"/>
	<g>
		<polygon class="st0" points="123.2,77.6 127.4,86.2 144,89.8 144,65.3 130.7,62.2 		"/>
		<polygon class="st0" points="15.9,24.4 0,28 0,4.4 12.6,1.6 22.7,9.5 		"/>
		<polygon class="st0" points="144,127.3 118.4,133.6 126.6,149.8 144,153.4 		"/>
		<polygon class="st0" points="80.6,125.1 80.6,143.9 65.9,155.7 65.8,128.5 		"/>
		<polygon class="st0" points="55.1,8 80.5,1.8 80.6,27.8 		"/>
		<path class="st0" d="M20.3,75.7c0,2.4-0.5,4.9-1.6,7.3C15.2,90.1,7.4,93.7,0,92l0-32.4C0,59.6,14.3,70.8,20.3,75.7z"/>
		<path class="st0" d="M66.2,61l14.3,3.2l0,26.3c-7.5,1.8-15.5-1.8-19-9C58.1,74.3,60.2,65.8,66.2,61z"/>
	</g>
	<g>
		<path class="st0" d="M263.8,42.3v-2.4c0-3.8-3.1-7-7-7h-10.2v27.6h3.4V49.3h6.7C260.6,49.3,263.8,46.1,263.8,42.3z M250.1,36.4
			h6.7c2,0,3.5,1.5,3.5,3.5v2.4c0,2-1.5,3.5-3.5,3.5h-6.7V36.4z"/>
		<polygon class="st0" points="281.5,36.4 288.3,36.4 288.3,32.9 271.2,32.9 271.2,36.4 278,36.4 278,57.1 271.2,57.1 271.2,60.5
			288.3,60.5 288.3,57.1 281.5,57.1 		"/>
		<path class="st0" d="M303.6,60.5h3.4c4,0,7.3-3.1,7.3-7V39.9c0-3.8-3.3-7-7.3-7h-3.4c-4,0-7.3,3.1-7.3,7v13.6
			C296.3,57.4,299.6,60.5,303.6,60.5z M299.7,39.9c0-1.9,1.7-3.5,3.9-3.5h3.4c2.2,0,3.9,1.5,3.9,3.5v13.6c0,1.9-1.8,3.5-3.9,3.5
			h-3.4c-2.1,0-3.9-1.6-3.9-3.5V39.9z"/>
		<polygon class="st0" points="342.5,60.5 342.5,32.9 339,32.9 339,56.5 329.7,32.9 324.2,32.9 324.2,60.5 327.6,60.5 327.6,37
			336.9,60.5 		"/>
		<polygon class="st0" points="356.1,47.8 366.6,47.8 366.6,44.3 356.1,44.3 356.1,36.4 368.2,36.4 368.2,32.9 352.7,32.9
			352.7,60.5 368.2,60.5 368.2,57.1 356.1,57.1 		"/>
		<polygon class="st0" points="381.1,47.8 391.6,47.8 391.6,44.3 381.1,44.3 381.1,36.4 393.2,36.4 393.2,32.9 377.7,32.9
			377.7,60.5 393.2,60.5 393.2,57.1 381.1,57.1 		"/>
		<path class="st0" d="M414.8,49c3-0.8,5.1-3.5,5.1-6.7v-2.4c0-3.8-3.1-7-7-7h-10.2v27.6h3.4V49.3h4.6l5.1,11.3h3.8l-5.2-11.4
			L414.8,49z M406.1,45.8v-9.4h6.7c2,0,3.5,1.5,3.5,3.5v2.4c0,2-1.5,3.5-3.5,3.5H406.1z"/>
		<path class="st0" d="M447.5,60.5h3.2c3.8,0,7-3.1,7-7v-1.9h-3.4v1.9c0,1.9-1.6,3.5-3.5,3.5h-3.2c-1.9,0-3.5-1.6-3.5-3.5V39.9
			c0-1.9,1.6-3.5,3.5-3.5h3.2c2,0,3.5,1.5,3.5,3.5v1.9h3.4v-1.9c0-3.8-3.1-7-7-7h-3.2c-3.8,0-7,3.1-7,7v13.6
			C440.6,57.4,443.7,60.5,447.5,60.5z"/>
		<polygon class="st0" points="470.6,47.8 481.1,47.8 481.1,44.3 470.6,44.3 470.6,36.4 482.7,36.4 482.7,32.9 467.2,32.9
			467.2,60.5 482.7,60.5 482.7,57.1 470.6,57.1 		"/>
		<polygon class="st0" points="507.1,56.5 497.8,32.9 492.2,32.9 492.2,60.5 495.6,60.5 495.6,37 504.9,60.5 510.5,60.5 510.5,32.9
			507.1,32.9 		"/>
		<polygon class="st0" points="518.6,36.4 525.5,36.4 525.5,60.5 528.9,60.5 528.9,36.4 535.7,36.4 535.7,32.9 518.6,32.9 		"/>
		<path class="st0" d="M557,60.5h3.8l-5.2-11.4l0.3-0.1c3-0.8,5.1-3.5,5.1-6.7v-2.4c0-3.8-3.1-7-7-7h-10.2v27.6h3.4V49.3h4.6
			L557,60.5z M547.3,36.4h6.7c2,0,3.5,1.5,3.5,3.5v2.4c0,2-1.5,3.5-3.5,3.5h-6.7V36.4z"/>
		<polygon class="st0" points="585.9,57.1 573.9,57.1 573.9,47.8 584.4,47.8 584.4,44.3 573.9,44.3 573.9,36.4 585.9,36.4
			585.9,32.9 570.4,32.9 570.4,60.5 585.9,60.5 		"/>
		<polygon class="st0" points="610.5,36.4 621.8,36.4 621.8,32.9 607.1,32.9 607.1,60.5 610.5,60.5 610.5,49 620.3,49 620.3,45.5
			610.5,45.5 		"/>
		<path class="st0" d="M637.8,60.5h3.4c4,0,7.3-3.1,7.3-7V39.9c0-3.8-3.3-7-7.3-7h-3.4c-4,0-7.3,3.1-7.3,7v13.6
			C630.5,57.4,633.8,60.5,637.8,60.5z M633.9,39.9c0-1.9,1.7-3.5,3.9-3.5h3.4c2.2,0,3.9,1.5,3.9,3.5v13.6c0,1.9-1.8,3.5-3.9,3.5
			h-3.4c-2.1,0-3.9-1.6-3.9-3.5V39.9z"/>
		<path class="st0" d="M671.5,60.5h3.8l-5.2-11.4l0.3-0.1c3-0.8,5.1-3.5,5.1-6.7v-2.4c0-3.8-3.1-7-7-7h-10.2v27.6h3.4V49.3h4.6
			L671.5,60.5z M661.8,36.4h6.7c2,0,3.5,1.5,3.5,3.5v2.4c0,2-1.5,3.5-3.5,3.5h-6.7V36.4z"/>
		<path class="st0" d="M259.7,122.1h3.4v-8.9l-7-18.7h-3.6l-6.9,18.7v8.9h3.4v-6.5h10.6V122.1z M249.7,112.2l4.4-11.8h0.5l4.4,11.8
			H249.7z"/>
		<path class="st0" d="M289.7,101.5c0-3.8-3.1-7-7-7h-10.2v27.6h3.4v-11.3h4.6l5.1,11.3h3.8l-5.2-11.4l0.3-0.1
			c3-0.8,5.1-3.5,5.1-6.7V101.5z M286.2,103.9c0,2-1.5,3.5-3.5,3.5H276V98h6.7c2,0,3.5,1.5,3.5,3.5V103.9z"/>
		<polygon class="st0" points="303.9,122.1 307.3,122.1 307.3,98 314.2,98 314.2,94.6 297,94.6 297,98 303.9,98 		"/>
		<polygon class="st0" points="331.4,98 338.3,98 338.3,94.6 321.2,94.6 321.2,98 328,98 328,118.7 321.2,118.7 321.2,122.1
			338.3,122.1 338.3,118.7 331.4,118.7 		"/>
		<polygon class="st0" points="359.8,107.2 350.1,107.2 350.1,98 361.3,98 361.3,94.6 346.6,94.6 346.6,122.1 350.1,122.1
			350.1,110.6 359.8,110.6 		"/>
		<polygon class="st0" points="379.1,98 386,98 386,94.6 368.8,94.6 368.8,98 375.7,98 375.7,118.7 368.8,118.7 368.8,122.1
			386,122.1 386,118.7 379.1,118.7 		"/>
		<path class="st0" d="M404.1,94.6h-3.2c-3.8,0-7,3.1-7,7v13.6c0,3.9,3.1,7,7,7h3.2c3.8,0,7-3.1,7-7v-1.9h-3.4v1.9
			c0,1.9-1.6,3.5-3.5,3.5h-3.2c-1.9,0-3.5-1.6-3.5-3.5v-13.6c0-1.9,1.6-3.5,3.5-3.5h3.2c2,0,3.5,1.5,3.5,3.5v1.9h3.4v-1.9
			C411.1,97.7,407.9,94.6,404.1,94.6z"/>
		<polygon class="st0" points="425.6,118.7 418.7,118.7 418.7,122.1 435.8,122.1 435.8,118.7 429,118.7 429,98 435.8,98 435.8,94.6
			418.7,94.6 418.7,98 425.6,98 		"/>
		<path class="st0" d="M450.6,94.6l-6.9,18.7v8.9h3.4v-6.5h10.6v6.5h3.4v-8.9l-7-18.7H450.6z M447.7,112.2l4.4-11.8h0.5l4.4,11.8
			H447.7z"/>
		<polygon class="st0" points="474.1,94.6 470.6,94.6 470.6,122.1 485.7,122.1 485.7,118.7 474.1,118.7 		"/>
		<polygon class="st0" points="511.4,118.7 504.5,118.7 504.5,122.1 521.6,122.1 521.6,118.7 514.8,118.7 514.8,98 521.6,98
			521.6,94.6 504.5,94.6 504.5,98 511.4,98 		"/>
		<polygon class="st0" points="530,94.6 530,122.1 533.4,122.1 533.4,98.6 542.7,122.1 548.3,122.1 548.3,94.6 544.9,94.6
			544.9,118.1 535.6,94.6 		"/>
		<polygon class="st0" points="563.3,122.1 566.7,122.1 566.7,98 573.5,98 573.5,94.6 556.4,94.6 556.4,98 563.3,98 		"/>
		<polygon class="st0" points="597.2,118.7 585.1,118.7 585.1,109.4 595.6,109.4 595.6,105.9 585.1,105.9 585.1,98 597.2,98
			597.2,94.6 581.7,94.6 581.7,122.1 597.2,122.1 		"/>
		<polygon class="st0" points="610.1,94.6 606.7,94.6 606.7,122.1 621.7,122.1 621.7,118.7 610.1,118.7 		"/>
		<polygon class="st0" points="633.6,94.6 630.1,94.6 630.1,122.1 645.2,122.1 645.2,118.7 633.6,118.7 		"/>
		<polygon class="st0" points="659.3,118.7 652.5,118.7 652.5,122.1 669.6,122.1 669.6,118.7 662.8,118.7 662.8,98 669.6,98
			669.6,94.6 652.5,94.6 652.5,98 659.3,98 		"/>
		<path class="st0" d="M687.7,94.6h-3.2c-3.8,0-7,3.1-7,7v13.6c0,3.9,3.1,7,7,7h3.2c3.8,0,7-3.1,7-7v-7.6h-9.5v3.4h6v4.2
			c0,1.9-1.6,3.5-3.5,3.5h-3.2c-1.9,0-3.5-1.6-3.5-3.5v-13.6c0-1.9,1.6-3.5,3.5-3.5h3.2c2,0,3.5,1.5,3.5,3.5v1.9h3.4v-1.9
			C694.7,97.7,691.6,94.6,687.7,94.6z"/>
		<polygon class="st0" points="720.1,118.7 708,118.7 708,109.4 718.5,109.4 718.5,105.9 708,105.9 708,98 720.1,98 720.1,94.6
			704.6,94.6 704.6,122.1 720.1,122.1 		"/>
		<polygon class="st0" points="729.6,94.6 729.6,122.1 733,122.1 733,98.6 742.3,122.1 747.9,122.1 747.9,94.6 744.5,94.6
			744.5,118.1 735.2,94.6 		"/>
		<path class="st0" d="M768,94.6h-3.2c-3.8,0-7,3.1-7,7v13.6c0,3.9,3.1,7,7,7h3.2c3.8,0,7-3.1,7-7v-1.9h-3.4v1.9
			c0,1.9-1.6,3.5-3.5,3.5h-3.2c-1.9,0-3.5-1.6-3.5-3.5v-13.6c0-1.9,1.6-3.5,3.5-3.5h3.2c2,0,3.5,1.5,3.5,3.5v1.9h3.4v-1.9
			C775,97.7,771.9,94.6,768,94.6z"/>
		<polygon class="st0" points="800,118.7 787.9,118.7 787.9,109.4 798.4,109.4 798.4,105.9 787.9,105.9 787.9,98 800,98 800,94.6
			784.5,94.6 784.5,122.1 800,122.1 		"/>
	</g>
</g>
</svg>
