<?xml version="1.0" encoding="utf-8"?>
<!-- Generator: Adobe Illustrator 26.1.0, SVG Export Plug-In . SVG Version: 6.00 Build 0)  -->
<svg version="1.1" id="Layer_1" xmlns="http://www.w3.org/2000/svg" xmlns:xlink="http://www.w3.org/1999/xlink" x="0px" y="0px"
	 viewBox="0 0 800 978.3" style="enable-background:new 0 0 800 978.3;" xml:space="preserve">
<style type="text/css">
	.st0{fill:#4B4F63;}
</style>
<g>
	<rect y="487.9" class="st0" width="349.3" height="7.5"/>
	<g>
		<polygon class="st0" points="299.1,183.2 309.2,204 349.3,212.7 349.2,153.7 317.1,146.1 		"/>
		<polygon class="st0" points="40.1,54.9 1.9,63.5 1.8,6.8 32.2,0 56.6,19.1 		"/>
		<polygon class="st0" points="349.1,303.2 287.5,318.3 307.1,357.4 349.3,366.1 		"/>
		<polygon class="st0" points="196.2,297.7 196.3,343.2 160.8,371.6 160.5,305.9 		"/>
		<polygon class="st0" points="134.7,15.4 196,0.4 196.1,63.1 		"/>
		<path class="st0" d="M50.7,178.7c0,5.9-1.2,11.9-4,17.5C38.5,213.4,19.7,222,1.9,218l0-78.2C1.9,139.8,36.2,166.9,50.7,178.7z"/>
		<path class="st0" d="M161.6,143.3l34.5,7.7l0.1,63.4c-18.1,4.3-37.3-4.3-45.8-21.7C141.9,175.3,147,154.8,161.6,143.3z"/>
	</g>
	<path class="st0" d="M28.2,614.5H3.7V681H12v-27.2h16.2c9.2,0,16.8-7.5,16.8-16.8v-5.8C45,622,37.4,614.5,28.2,614.5z M36.7,637.1
		c0,4.7-3.7,8.5-8.5,8.5H12v-22.7h16.2c4.7,0,8.5,3.7,8.5,8.5V637.1z"/>
	<polygon class="st0" points="85.9,622.8 102.4,622.8 102.4,614.5 61.1,614.5 61.1,622.8 77.6,622.8 77.6,672.7 61.1,672.7
		61.1,681 102.4,681 102.4,672.7 85.9,672.7 	"/>
	<path class="st0" d="M137.3,681h8.1c9.7,0,17.5-7.6,17.5-16.9v-32.9c0-9.2-7.9-16.8-17.5-16.8h-8.1c-9.7,0-17.5,7.5-17.5,16.8v32.9
		C119.8,673.5,127.6,681,137.3,681z M128,631.3c0-4.7,4.2-8.5,9.3-8.5h8.1c5.2,0,9.3,3.7,9.3,8.5v32.9c0,4.6-4.3,8.5-9.3,8.5h-8.1
		c-5.1,0-9.3-3.9-9.3-8.5V631.3z"/>
	<polygon class="st0" points="229.3,681 229.3,614.5 221,614.5 221,671.2 198.6,614.5 185.1,614.5 185.1,681 193.4,681 193.4,624.3
		215.9,681 	"/>
	<polygon class="st0" points="260.4,650.3 285.8,650.3 285.8,642 260.4,642 260.4,622.8 289.6,622.8 289.6,614.5 252.1,614.5
		252.1,681 289.6,681 289.6,672.7 260.4,672.7 	"/>
	<polygon class="st0" points="318.9,650.3 344.2,650.3 344.2,642 318.9,642 318.9,622.8 348,622.8 348,614.5 310.6,614.5 310.6,681
		348,681 348,672.7 318.9,672.7 	"/>
	<path class="st0" d="M400.8,681h9.1l-12.6-27.6l0.8-0.2c7.3-2,12.2-8.5,12.2-16.1v-5.8c0-9.2-7.5-16.8-16.8-16.8h-24.5V681h8.3
		v-27.2h11.1L400.8,681z M377.4,622.8h16.2c4.7,0,8.5,3.7,8.5,8.5v5.8c0,4.7-3.7,8.5-8.5,8.5h-16.2V622.8z"/>
	<path class="st0" d="M475.3,681h7.8c9.2,0,16.8-7.6,16.8-16.9v-4.6h-8.3v4.6c0,4.7-3.8,8.5-8.5,8.5h-7.8c-4.7,0-8.5-3.8-8.5-8.5
		v-32.9c0-4.7,3.8-8.5,8.5-8.5h7.8c4.7,0,8.5,3.7,8.5,8.5v4.6h8.3v-4.6c0-9.2-7.5-16.8-16.8-16.8h-7.8c-9.2,0-16.8,7.5-16.8,16.8
		v32.9C458.5,673.5,466,681,475.3,681z"/>
	<polygon class="st0" points="529.2,650.3 554.6,650.3 554.6,642 529.2,642 529.2,622.8 558.3,622.8 558.3,614.5 520.9,614.5
		520.9,681 558.3,681 558.3,672.7 529.2,672.7 	"/>
	<polygon class="st0" points="587.7,624.3 610.1,681 623.6,681 623.6,614.5 615.3,614.5 615.3,671.2 592.9,614.5 579.4,614.5
		579.4,681 587.7,681 	"/>
	<polygon class="st0" points="682.6,614.5 641.3,614.5 641.3,622.8 657.8,622.8 657.8,681 666.1,681 666.1,622.8 682.6,622.8 	"/>
	<path class="st0" d="M729.4,653.2c7.3-2,12.2-8.5,12.2-16.1v-5.8c0-9.2-7.5-16.8-16.8-16.8h-24.5V681h8.3v-27.2h11.1l12.3,27.2h9.1
		l-12.6-27.6L729.4,653.2z M708.6,645.6v-22.7h16.2c4.7,0,8.5,3.7,8.5,8.5v5.8c0,4.7-3.7,8.5-8.5,8.5H708.6z"/>
	<polygon class="st0" points="800,672.7 770.9,672.7 770.9,650.3 796.2,650.3 796.2,642 770.9,642 770.9,622.8 800,622.8 800,614.5
		762.6,614.5 762.6,681 800,681 	"/>
	<polygon class="st0" points="35.6,793.5 12,793.5 12,771.5 39.2,771.5 39.2,763.1 3.7,763.1 3.7,829.7 12,829.7 12,801.8
		35.6,801.8 	"/>
	<path class="st0" d="M75.9,829.7H84c9.7,0,17.5-7.6,17.5-16.9v-32.9c0-9.2-7.9-16.8-17.5-16.8h-8.1c-9.7,0-17.5,7.5-17.5,16.8v32.9
		C58.3,822.1,66.2,829.7,75.9,829.7z M66.5,779.9c0-4.7,4.2-8.5,9.3-8.5H84c5.2,0,9.3,3.7,9.3,8.5v32.9c0,4.6-4.3,8.5-9.3,8.5h-8.1
		c-5.1,0-9.3-3.9-9.3-8.5V779.9z"/>
	<path class="st0" d="M155.4,829.7h9.1L152,802.1l0.8-0.2c7.3-2,12.2-8.5,12.2-16.1v-5.8c0-9.2-7.5-16.8-16.8-16.8h-24.5v66.5h8.3
		v-27.2h11.1L155.4,829.7z M132,771.5h16.2c4.7,0,8.5,3.7,8.5,8.5v5.8c0,4.7-3.7,8.5-8.5,8.5H132V771.5z"/>
	<path class="st0" d="M245.3,829.7h8.3v-21.5l-16.8-45h-8.7l-16.8,45v21.5h8.3V814h25.7V829.7z M221.2,805.6l10.7-28.6h1.2
		l10.7,28.6H221.2z"/>
	<path class="st0" d="M306.4,829.7h9.1l-12.6-27.6l0.8-0.2c7.3-2,12.2-8.5,12.2-16.1v-5.8c0-9.2-7.5-16.8-16.8-16.8h-24.5v66.5h8.3
		v-27.2H294L306.4,829.7z M282.9,771.5h16.2c4.7,0,8.5,3.7,8.5,8.5v5.8c0,4.7-3.7,8.5-8.5,8.5h-16.2V771.5z"/>
	<polygon class="st0" points="348.3,829.7 356.6,829.7 356.6,771.5 373.1,771.5 373.1,763.1 331.8,763.1 331.8,771.5 348.3,771.5
		"/>
	<polygon class="st0" points="412.9,771.5 429.4,771.5 429.4,763.1 388.1,763.1 388.1,771.5 404.6,771.5 404.6,821.4 388.1,821.4
		388.1,829.7 429.4,829.7 429.4,821.4 412.9,821.4 	"/>
	<polygon class="st0" points="456,771.5 483.2,771.5 483.2,763.1 447.7,763.1 447.7,829.7 456,829.7 456,801.8 479.6,801.8
		479.6,793.5 456,793.5 	"/>
	<polygon class="st0" points="524.2,771.5 540.7,771.5 540.7,763.1 499.4,763.1 499.4,771.5 515.9,771.5 515.9,821.4 499.4,821.4
		499.4,829.7 540.7,829.7 540.7,821.4 524.2,821.4 	"/>
	<path class="st0" d="M599.4,808.2h-8.3v4.6c0,4.7-3.8,8.5-8.5,8.5h-7.8c-4.7,0-8.5-3.8-8.5-8.5v-32.9c0-4.7,3.8-8.5,8.5-8.5h7.8
		c4.7,0,8.5,3.7,8.5,8.5v4.6h8.3v-4.6c0-9.2-7.5-16.8-16.8-16.8h-7.8c-9.2,0-16.8,7.5-16.8,16.8v32.9c0,9.3,7.5,16.9,16.8,16.9h7.8
		c9.2,0,16.8-7.6,16.8-16.9V808.2z"/>
	<polygon class="st0" points="640.9,771.5 657.4,771.5 657.4,763.1 616.1,763.1 616.1,771.5 632.6,771.5 632.6,821.4 616.1,821.4
		616.1,829.7 657.4,829.7 657.4,821.4 640.9,821.4 	"/>
	<path class="st0" d="M691.2,763.1l-16.8,45v21.5h8.3V814h25.7v15.7h8.3v-21.5l-16.8-45H691.2z M684.2,805.6l10.7-28.6h1.2
		l10.7,28.6H684.2z"/>
	<polygon class="st0" points="745.9,763.1 737.6,763.1 737.6,829.7 773.9,829.7 773.9,821.4 745.9,821.4 	"/>
	<polygon class="st0" points="17.3,970 0.8,970 0.8,978.3 42.1,978.3 42.1,970 25.6,970 25.6,920.1 42.1,920.1 42.1,911.8
		0.8,911.8 0.8,920.1 17.3,920.1 	"/>
	<polygon class="st0" points="60.4,911.8 60.4,978.3 68.7,978.3 68.7,921.6 91.1,978.3 104.6,978.3 104.6,911.8 96.3,911.8
		96.3,968.5 73.8,911.8 	"/>
	<polygon class="st0" points="138.8,978.3 147.1,978.3 147.1,920.1 163.6,920.1 163.6,911.8 122.3,911.8 122.3,920.1 138.8,920.1
		"/>
	<polygon class="st0" points="218.7,970 189.6,970 189.6,947.5 214.9,947.5 214.9,939.2 189.6,939.2 189.6,920.1 218.7,920.1
		218.7,911.8 181.3,911.8 181.3,978.3 218.7,978.3 	"/>
	<polygon class="st0" points="248.1,911.8 239.8,911.8 239.8,978.3 276,978.3 276,970 248.1,970 	"/>
	<polygon class="st0" points="302.8,911.8 294.5,911.8 294.5,978.3 330.8,978.3 330.8,970 302.8,970 	"/>
	<polygon class="st0" points="363.1,970 346.6,970 346.6,978.3 387.9,978.3 387.9,970 371.4,970 371.4,920.1 387.9,920.1
		387.9,911.8 346.6,911.8 346.6,920.1 363.1,920.1 	"/>
	<path class="st0" d="M429.8,911.8h-7.8c-9.2,0-16.8,7.5-16.8,16.8v32.9c0,9.3,7.5,16.9,16.8,16.9h7.8c9.2,0,16.8-7.6,16.8-16.9
		v-18.3h-22.9v8.3h14.6v10c0,4.7-3.8,8.5-8.5,8.5h-7.8c-4.7,0-8.5-3.8-8.5-8.5v-32.9c0-4.7,3.8-8.5,8.5-8.5h7.8
		c4.7,0,8.5,3.7,8.5,8.5v4.6h8.3v-4.6C446.6,919.3,439.1,911.8,429.8,911.8z"/>
	<polygon class="st0" points="506,970 476.9,970 476.9,947.5 502.2,947.5 502.2,939.2 476.9,939.2 476.9,920.1 506,920.1 506,911.8
		468.6,911.8 468.6,978.3 506,978.3 	"/>
	<polygon class="st0" points="527,911.8 527,978.3 535.3,978.3 535.3,921.6 557.8,978.3 571.2,978.3 571.2,911.8 562.9,911.8
		562.9,968.5 540.5,911.8 	"/>
	<path class="st0" d="M617.9,911.8h-7.8c-9.2,0-16.8,7.5-16.8,16.8v32.9c0,9.3,7.5,16.9,16.8,16.9h7.8c9.2,0,16.8-7.6,16.8-16.9
		v-4.6h-8.3v4.6c0,4.7-3.8,8.5-8.5,8.5h-7.8c-4.7,0-8.5-3.8-8.5-8.5v-32.9c0-4.7,3.8-8.5,8.5-8.5h7.8c4.7,0,8.5,3.7,8.5,8.5v4.6h8.3
		v-4.6C634.7,919.3,627.2,911.8,617.9,911.8z"/>
	<polygon class="st0" points="693.2,970 664.1,970 664.1,947.5 689.4,947.5 689.4,939.2 664.1,939.2 664.1,920.1 693.2,920.1
		693.2,911.8 655.8,911.8 655.8,978.3 693.2,978.3 	"/>
</g>
</svg>
