<?xml version="1.0" encoding="utf-8"?>
<!-- Generator: Adobe Illustrator 26.1.0, SVG Export Plug-In . SVG Version: 6.00 Build 0)  -->
<svg version="1.1" id="Layer_1" xmlns="http://www.w3.org/2000/svg" xmlns:xlink="http://www.w3.org/1999/xlink" x="0px" y="0px"
	 viewBox="0 0 800 948.4" style="enable-background:new 0 0 800 948.4;" xml:space="preserve">
<style type="text/css">
	.st0{fill:#FFFFFF;}
</style>
<g>
	<rect y="474.8" class="st0" width="339.9" height="7.3"/>
	<g>
		<polygon class="st0" points="291.1,178.3 300.9,198.5 339.9,207 339.8,149.6 308.6,142.1 		"/>
		<polygon class="st0" points="39.1,53.4 1.8,61.8 1.8,6.6 31.4,0 55.1,18.6 		"/>
		<polygon class="st0" points="339.7,295.1 279.8,309.7 298.9,347.8 339.9,356.3 		"/>
		<polygon class="st0" points="190.9,289.7 191,334 156.5,361.6 156.2,297.7 		"/>
		<polygon class="st0" points="131,15 190.8,0.4 190.9,61.4 		"/>
		<path class="st0" d="M49.4,173.9c0,5.7-1.2,11.6-3.9,17.1c-8,16.7-26.4,25-43.7,21.1l0-76.1C1.8,136.1,35.3,162.4,49.4,173.9z"/>
		<path class="st0" d="M157.2,139.4l33.6,7.5l0.1,61.7c-17.6,4.2-36.3-4.2-44.6-21.1C138.1,170.6,143,150.7,157.2,139.4z"/>
	</g>
	<g>
		<path class="st0" d="M27.4,598H3.6v64.7h8.1v-26.4h15.8c9,0,16.3-7.3,16.3-16.3v-5.7C43.8,605.3,36.4,598,27.4,598z M35.7,620
			c0,4.6-3.6,8.2-8.2,8.2H11.7v-22.1h15.8c4.6,0,8.2,3.6,8.2,8.2V620z"/>
		<polygon class="st0" points="85.4,606.1 101.4,606.1 101.4,598 61.3,598 61.3,606.1 77.3,606.1 77.3,654.6 61.3,654.6 61.3,662.7
			101.4,662.7 101.4,654.6 85.4,654.6 		"/>
		<path class="st0" d="M137.2,662.7h7.9c9.4,0,17.1-7.4,17.1-16.4v-32c0-9-7.7-16.3-17.1-16.3h-7.9c-9.4,0-17.1,7.3-17.1,16.3v32
			C120.1,655.4,127.8,662.7,137.2,662.7z M128.1,614.3c0-4.5,4.1-8.2,9.1-8.2h7.9c5.1,0,9.1,3.6,9.1,8.2v32c0,4.5-4.2,8.2-9.1,8.2
			h-7.9c-4.9,0-9.1-3.8-9.1-8.2V614.3z"/>
		<polygon class="st0" points="228.5,662.7 228.5,598 220.5,598 220.5,653.2 198.6,598 185.5,598 185.5,662.7 193.6,662.7
			193.6,607.5 215.4,662.7 		"/>
		<polygon class="st0" points="260.6,632.8 285.3,632.8 285.3,624.7 260.6,624.7 260.6,606.1 288.9,606.1 288.9,598 252.5,598
			252.5,662.7 288.9,662.7 288.9,654.6 260.6,654.6 		"/>
		<polygon class="st0" points="319.3,632.8 343.9,632.8 343.9,624.7 319.3,624.7 319.3,606.1 347.6,606.1 347.6,598 311.2,598
			311.2,662.7 347.6,662.7 347.6,654.6 319.3,654.6 		"/>
		<path class="st0" d="M400.8,662.7h8.9l-12.3-26.9l0.8-0.2c7.1-2,11.9-8.3,11.9-15.7v-5.7c0-9-7.3-16.3-16.3-16.3h-23.9v64.7h8.1
			v-26.4h10.8L400.8,662.7z M378,606.1h15.8c4.6,0,8.2,3.6,8.2,8.2v5.7c0,4.6-3.6,8.2-8.2,8.2H378V606.1z"/>
		<path class="st0" d="M475.1,662.7h7.6c9,0,16.3-7.4,16.3-16.4v-4.5h-8.1v4.5c0,4.5-3.7,8.2-8.2,8.2h-7.6c-4.5,0-8.2-3.7-8.2-8.2
			v-32c0-4.5,3.7-8.2,8.2-8.2h7.6c4.6,0,8.2,3.6,8.2,8.2v4.5h8.1v-4.5c0-9-7.3-16.3-16.3-16.3h-7.6c-9,0-16.3,7.3-16.3,16.3v32
			C458.7,655.4,466.1,662.7,475.1,662.7z"/>
		<polygon class="st0" points="529.3,632.8 554,632.8 554,624.7 529.3,624.7 529.3,606.1 557.7,606.1 557.7,598 521.3,598
			521.3,662.7 557.7,662.7 557.7,654.6 529.3,654.6 		"/>
		<polygon class="st0" points="623,662.7 623,598 614.9,598 614.9,653.2 593.1,598 580,598 580,662.7 588,662.7 588,607.5
			609.9,662.7 		"/>
		<polygon class="st0" points="658,662.7 666.1,662.7 666.1,606.1 682.2,606.1 682.2,598 642,598 642,606.1 658,606.1 		"/>
		<path class="st0" d="M729.5,635.6c7.1-2,11.9-8.3,11.9-15.7v-5.7c0-9-7.3-16.3-16.3-16.3h-23.9v64.7h8.1v-26.4h10.8l12,26.4h8.9
			l-12.3-26.9L729.5,635.6z M709.3,628.2v-22.1h15.8c4.6,0,8.2,3.6,8.2,8.2v5.7c0,4.6-3.6,8.2-8.2,8.2H709.3z"/>
		<polygon class="st0" points="800,654.6 771.7,654.6 771.7,632.8 796.3,632.8 796.3,624.7 771.7,624.7 771.7,606.1 800,606.1
			800,598 763.6,598 763.6,662.7 800,662.7 		"/>
		<polygon class="st0" points="34.6,770.4 11.7,770.4 11.7,748.9 38.1,748.9 38.1,740.8 3.6,740.8 3.6,805.6 11.7,805.6 11.7,778.5
			34.6,778.5 		"/>
		<path class="st0" d="M75.6,805.6h7.9c9.4,0,17.1-7.4,17.1-16.4v-32c0-9-7.7-16.3-17.1-16.3h-7.9c-9.4,0-17.1,7.3-17.1,16.3v32
			C58.5,798.2,66.2,805.6,75.6,805.6z M66.5,757.1c0-4.5,4.1-8.2,9.1-8.2h7.9c5.1,0,9.1,3.6,9.1,8.2v32c0,4.5-4.2,8.2-9.1,8.2h-7.9
			c-4.9,0-9.1-3.8-9.1-8.2V757.1z"/>
		<path class="st0" d="M154.8,805.6h8.9l-12.3-26.9l0.8-0.2c7.1-2,11.9-8.3,11.9-15.7v-5.7c0-9-7.3-16.3-16.3-16.3h-23.9v64.7h8.1
			v-26.4h10.8L154.8,805.6z M132,748.9h15.8c4.6,0,8.2,3.6,8.2,8.2v5.7c0,4.6-3.6,8.2-8.2,8.2H132V748.9z"/>
		<path class="st0" d="M211.1,805.6h8.1v-15.3h25v15.3h8.1v-20.9l-16.3-43.8h-8.5l-16.3,43.8V805.6z M231.1,754.4h1.1l10.4,27.8h-22
			L231.1,754.4z"/>
		<path class="st0" d="M282.5,779.1h10.8l12,26.4h8.9l-12.3-26.9l0.8-0.2c7.1-2,11.9-8.3,11.9-15.7v-5.7c0-9-7.3-16.3-16.3-16.3
			h-23.9v64.7h8.1V779.1z M282.5,748.9h15.8c4.6,0,8.2,3.6,8.2,8.2v5.7c0,4.6-3.6,8.2-8.2,8.2h-15.8V748.9z"/>
		<polygon class="st0" points="347.9,805.6 355.9,805.6 355.9,748.9 372,748.9 372,740.8 331.8,740.8 331.8,748.9 347.9,748.9 		"/>
		<polygon class="st0" points="412.6,748.9 428.6,748.9 428.6,740.8 388.4,740.8 388.4,748.9 404.5,748.9 404.5,797.5 388.4,797.5
			388.4,805.6 428.6,805.6 428.6,797.5 412.6,797.5 		"/>
		<polygon class="st0" points="456.3,748.9 482.7,748.9 482.7,740.8 448.2,740.8 448.2,805.6 456.3,805.6 456.3,778.5 479.2,778.5
			479.2,770.4 456.3,770.4 		"/>
		<polygon class="st0" points="524.5,748.9 540.5,748.9 540.5,740.8 500.4,740.8 500.4,748.9 516.4,748.9 516.4,797.5 500.4,797.5
			500.4,805.6 540.5,805.6 540.5,797.5 524.5,797.5 		"/>
		<path class="st0" d="M599.4,784.6h-8.1v4.5c0,4.5-3.7,8.2-8.2,8.2h-7.6c-4.5,0-8.2-3.7-8.2-8.2v-32c0-4.5,3.7-8.2,8.2-8.2h7.6
			c4.6,0,8.2,3.6,8.2,8.2v4.5h8.1v-4.5c0-9-7.3-16.3-16.3-16.3h-7.6c-9,0-16.3,7.3-16.3,16.3v32c0,9,7.3,16.4,16.3,16.4h7.6
			c9,0,16.3-7.4,16.3-16.4V784.6z"/>
		<polygon class="st0" points="641.6,748.9 657.6,748.9 657.6,740.8 617.4,740.8 617.4,748.9 633.5,748.9 633.5,797.5 617.4,797.5
			617.4,805.6 657.6,805.6 657.6,797.5 641.6,797.5 		"/>
		<path class="st0" d="M692.3,740.8L676,784.7v20.9h8.1v-15.3h25v15.3h8.1v-20.9l-16.3-43.8H692.3z M685.6,782.2l10.4-27.8h1.1
			l10.4,27.8H685.6z"/>
		<polygon class="st0" points="747.4,740.8 739.3,740.8 739.3,805.6 774.6,805.6 774.6,797.5 747.4,797.5 		"/>
		<polygon class="st0" points="24.9,891.7 40.9,891.7 40.9,883.7 0.7,883.7 0.7,891.7 16.8,891.7 16.8,940.3 0.7,940.3 0.7,948.4
			40.9,948.4 40.9,940.3 24.9,940.3 		"/>
		<polygon class="st0" points="60.5,883.7 60.5,948.4 68.6,948.4 68.6,893.2 90.4,948.4 103.5,948.4 103.5,883.7 95.5,883.7
			95.5,938.9 73.6,883.7 		"/>
		<polygon class="st0" points="138.6,948.4 146.7,948.4 146.7,891.7 162.8,891.7 162.8,883.7 122.6,883.7 122.6,891.7 138.6,891.7
					"/>
		<polygon class="st0" points="189.9,918.5 214.5,918.5 214.5,910.4 189.9,910.4 189.9,891.7 218.2,891.7 218.2,883.7 181.8,883.7
			181.8,948.4 218.2,948.4 218.2,940.3 189.9,940.3 		"/>
		<polygon class="st0" points="248.6,883.7 240.5,883.7 240.5,948.4 275.8,948.4 275.8,940.3 248.6,940.3 		"/>
		<polygon class="st0" points="303.1,883.7 295,883.7 295,948.4 330.2,948.4 330.2,940.3 303.1,940.3 		"/>
		<polygon class="st0" points="371.6,891.7 387.6,891.7 387.6,883.7 347.4,883.7 347.4,891.7 363.5,891.7 363.5,940.3 347.4,940.3
			347.4,948.4 387.6,948.4 387.6,940.3 371.6,940.3 		"/>
		<path class="st0" d="M430.2,883.7h-7.6c-9,0-16.3,7.3-16.3,16.3v32c0,9,7.3,16.4,16.3,16.4h7.6c9,0,16.3-7.4,16.3-16.4v-17.8
			h-22.2v8.1h14.2v9.7c0,4.5-3.7,8.2-8.2,8.2h-7.6c-4.5,0-8.2-3.7-8.2-8.2v-32c0-4.5,3.7-8.2,8.2-8.2h7.6c4.6,0,8.2,3.6,8.2,8.2v4.5
			h8.1V900C446.5,891,439.2,883.7,430.2,883.7z"/>
		<polygon class="st0" points="506.1,940.3 477.8,940.3 477.8,918.5 502.4,918.5 502.4,910.4 477.8,910.4 477.8,891.7 506.1,891.7
			506.1,883.7 469.7,883.7 469.7,948.4 506.1,948.4 		"/>
		<polygon class="st0" points="528.4,883.7 528.4,948.4 536.5,948.4 536.5,893.2 558.3,948.4 571.4,948.4 571.4,883.7 563.3,883.7
			563.3,938.9 541.5,883.7 		"/>
		<path class="st0" d="M618.6,883.7h-7.6c-9,0-16.3,7.3-16.3,16.3v32c0,9,7.3,16.4,16.3,16.4h7.6c9,0,16.3-7.4,16.3-16.4v-4.5h-8.1
			v4.5c0,4.5-3.7,8.2-8.2,8.2h-7.6c-4.5,0-8.2-3.7-8.2-8.2v-32c0-4.5,3.7-8.2,8.2-8.2h7.6c4.6,0,8.2,3.6,8.2,8.2v4.5h8.1V900
			C635,891,627.6,883.7,618.6,883.7z"/>
		<polygon class="st0" points="693.7,940.3 665.4,940.3 665.4,918.5 690,918.5 690,910.4 665.4,910.4 665.4,891.7 693.7,891.7
			693.7,883.7 657.3,883.7 657.3,948.4 693.7,948.4 		"/>
	</g>
</g>
</svg>
