<?xml version="1.0" encoding="utf-8"?>
<!-- Generator: Adobe Illustrator 26.1.0, SVG Export Plug-In . SVG Version: 6.00 Build 0)  -->
<svg version="1.1" id="Layer_1" xmlns="http://www.w3.org/2000/svg" xmlns:xlink="http://www.w3.org/1999/xlink" x="0px" y="0px"
	 viewBox="0 0 800 297.4" style="enable-background:new 0 0 800 297.4;" xml:space="preserve">
<style type="text/css">
	.st0{fill:#FFFFFF;}
</style>
<g>
	<rect x="367.6" class="st0" width="6.4" height="297.4"/>
	<g>
		<polygon class="st0" points="234.8,147.8 242.8,164.2 274.5,171.1 274.4,124.5 249.1,118.5 		"/>
		<polygon class="st0" points="30.2,46.5 0,53.3 0,8.5 24,3.1 43.3,18.2 		"/>
		<polygon class="st0" points="274.4,242.6 225.7,254.5 241.2,285.4 274.5,292.3 		"/>
		<polygon class="st0" points="153.5,238.3 153.6,274.2 125.6,296.7 125.3,244.8 		"/>
		<polygon class="st0" points="104.9,15.2 153.4,3.4 153.5,53 		"/>
		<path class="st0" d="M38.6,144.3c0,4.7-1,9.4-3.1,13.9C29,171.7,14.1,178.5,0,175.3l0-61.7C0,113.6,27.2,135,38.6,144.3z"/>
		<path class="st0" d="M126.2,116.3l27.3,6.1l0.1,50.1c-14.3,3.4-29.5-3.4-36.2-17.1C110.6,141.6,114.7,125.4,126.2,116.3z"/>
	</g>
	<path class="st0" d="M489.4,3.9H470v52.6h6.6V35h12.8c7.3,0,13.2-5.9,13.2-13.2v-4.6C502.6,9.9,496.7,3.9,489.4,3.9z M496,21.8
		c0,3.7-2.9,6.7-6.7,6.7h-12.8v-18h12.8c3.7,0,6.7,2.9,6.7,6.7V21.8z"/>
	<polygon class="st0" points="529.8,49.9 516.8,49.9 516.8,56.5 549.4,56.5 549.4,49.9 536.4,49.9 536.4,10.5 549.4,10.5 549.4,3.9
		516.8,3.9 516.8,10.5 529.8,10.5 	"/>
	<path class="st0" d="M578.5,56.5h6.4c7.6,0,13.9-6,13.9-13.3v-26c0-7.3-6.2-13.2-13.9-13.2h-6.4c-7.6,0-13.9,5.9-13.9,13.2v26
		C564.6,50.5,570.8,56.5,578.5,56.5z M571.1,17.2c0-3.7,3.3-6.7,7.4-6.7h6.4c4.1,0,7.4,2.9,7.4,6.7v26c0,3.6-3.4,6.7-7.4,6.7h-6.4
		c-4,0-7.4-3.1-7.4-6.7V17.2z"/>
	<polygon class="st0" points="617.7,3.9 617.7,56.5 624.3,56.5 624.3,11.7 642,56.5 652.6,56.5 652.6,3.9 646.1,3.9 646.1,48.8
		628.3,3.9 	"/>
	<polygon class="st0" points="678.7,10.5 701.6,10.5 701.6,3.9 672.1,3.9 672.1,56.5 701.6,56.5 701.6,49.9 678.7,49.9 678.7,32.2
		698.7,32.2 698.7,25.6 678.7,25.6 	"/>
	<polygon class="st0" points="749.3,49.9 726.3,49.9 726.3,32.2 746.3,32.2 746.3,25.6 726.3,25.6 726.3,10.5 749.3,10.5 749.3,3.9
		719.7,3.9 719.7,56.5 749.3,56.5 	"/>
	<path class="st0" d="M790.4,34.5c5.8-1.6,9.6-6.7,9.6-12.7v-4.6c0-7.3-5.9-13.2-13.2-13.2h-19.4v52.6h6.6V35h8.8l9.7,21.5h7.2
		l-10-21.8L790.4,34.5z M773.9,28.5v-18h12.8c3.7,0,6.7,2.9,6.7,6.7v4.6c0,3.7-2.9,6.7-6.7,6.7H773.9z"/>
	<path class="st0" d="M488.7,121.4h-6.1c-7.3,0-13.2,5.9-13.2,13.2v26c0,7.3,5.9,13.3,13.2,13.3h6.1c7.3,0,13.2-6,13.2-13.3v-3.7
		h-6.6v3.7c0,3.7-3,6.7-6.7,6.7h-6.1c-3.7,0-6.7-3-6.7-6.7v-26c0-3.7,3-6.7,6.7-6.7h6.1c3.7,0,6.7,2.9,6.7,6.7v3.7h6.6v-3.7
		C502,127.3,496,121.4,488.7,121.4z"/>
	<polygon class="st0" points="549.7,167.4 526.7,167.4 526.7,149.6 546.7,149.6 546.7,143.1 526.7,143.1 526.7,127.9 549.7,127.9
		549.7,121.4 520.1,121.4 520.1,173.9 549.7,173.9 	"/>
	<polygon class="st0" points="567.8,121.4 567.8,173.9 574.3,173.9 574.3,129.1 592,173.9 602.7,173.9 602.7,121.4 596.1,121.4
		596.1,166.2 578.4,121.4 	"/>
	<polygon class="st0" points="631.2,173.9 637.7,173.9 637.7,127.9 650.8,127.9 650.8,121.4 618.1,121.4 618.1,127.9 631.2,127.9
		"/>
	<path class="st0" d="M691.3,173.9h7.2l-10-21.8l0.6-0.2c5.8-1.6,9.6-6.7,9.6-12.7v-4.6c0-7.3-5.9-13.2-13.2-13.2h-19.4v52.6h6.6
		v-21.5h8.8L691.3,173.9z M672.8,127.9h12.8c3.7,0,6.7,2.9,6.7,6.7v4.6c0,3.7-2.9,6.7-6.7,6.7h-12.8V127.9z"/>
	<polygon class="st0" points="746.4,167.4 723.4,167.4 723.4,149.6 743.4,149.6 743.4,143.1 723.4,143.1 723.4,127.9 746.4,127.9
		746.4,121.4 716.9,121.4 716.9,173.9 746.4,173.9 	"/>
	<polygon class="st0" points="476.5,269.3 495.2,269.3 495.2,262.8 476.5,262.8 476.5,245.3 498,245.3 498,238.8 470,238.8
		470,291.3 476.5,291.3 	"/>
	<path class="st0" d="M534.9,238.8h-6.4c-7.6,0-13.9,5.9-13.9,13.2v26c0,7.3,6.2,13.3,13.9,13.3h6.4c7.6,0,13.9-6,13.9-13.3v-26
		C548.8,244.7,542.5,238.8,534.9,238.8z M542.3,278c0,3.6-3.4,6.7-7.4,6.7h-6.4c-4,0-7.4-3.1-7.4-6.7v-26c0-3.7,3.3-6.7,7.4-6.7h6.4
		c4.1,0,7.4,2.9,7.4,6.7V278z"/>
	<path class="st0" d="M590.7,269.4c5.8-1.6,9.6-6.7,9.6-12.7V252c0-7.3-5.9-13.2-13.2-13.2h-19.4v52.6h6.6v-21.5h8.8l9.7,21.5h7.2
		l-10-21.8L590.7,269.4z M574.2,263.3v-18h12.8c3.7,0,6.7,2.9,6.7,6.7v4.6c0,3.7-2.9,6.7-6.7,6.7H574.2z"/>
	<path class="st0" d="M650.2,238.8L637,274.4v17h6.6v-12.4h20.3v12.4h6.6v-17l-13.2-35.6H650.2z M644.7,272.4l8.5-22.6h0.9l8.5,22.6
		H644.7z"/>
	<polygon class="st0" points="699.1,284.8 686,284.8 686,291.3 718.6,291.3 718.6,284.8 705.6,284.8 705.6,245.3 718.6,245.3
		718.6,238.8 686,238.8 686,245.3 699.1,245.3 	"/>
</g>
</svg>
